<svg width="217" height="216" viewBox="0 0 217 216" fill="none" xmlns="http://www.w3.org/2000/svg">
<path d="M124.643 162.685L128.979 160.08L134.948 170.019L140.504 166.683C141.504 166.082 142.365 165.533 143.087 165.036C143.803 164.563 144.344 164.047 144.709 163.488C145.075 162.928 145.246 162.293 145.224 161.584C145.186 160.883 144.911 160.017 144.398 158.986L142.966 156.178C142.935 156.09 142.857 155.924 142.732 155.681C142.606 155.437 142.469 155.137 142.319 154.78C142.178 154.44 142.038 154.066 141.901 153.66C141.763 153.253 141.66 152.869 141.591 152.506L146.349 149.649C146.324 149.855 146.307 150.057 146.298 150.253C146.282 150.475 146.308 150.747 146.373 151.069C146.424 151.401 146.536 151.801 146.712 152.27C146.871 152.748 147.109 153.339 147.425 154.042L149.072 157.422C149.485 158.323 149.789 159.076 149.983 159.682C150.162 160.298 150.237 160.848 150.209 161.333C150.175 161.843 150.028 162.324 149.769 162.777C149.519 163.247 149.167 163.777 148.714 164.368C151.984 163.722 154.52 164.9 156.322 167.9C156.772 168.65 157.092 169.394 157.279 170.132C157.477 170.885 157.577 171.601 157.58 172.28C157.568 172.968 157.487 173.612 157.337 174.212C157.181 174.837 156.983 175.392 156.743 175.877C156.446 176.48 156.055 177.034 155.571 177.537C155.096 178.057 154.593 178.529 154.061 178.954C153.515 179.389 152.964 179.783 152.411 180.137C151.858 180.49 151.347 180.808 150.878 181.089L139.72 187.79L124.643 162.685ZM141.776 181.388L148.34 177.447C148.902 177.109 149.382 176.81 149.779 176.55C150.185 176.306 150.535 176.075 150.829 175.856C151.107 175.646 151.348 175.427 151.551 175.199C151.754 174.971 151.946 174.706 152.128 174.406C152.487 173.765 152.632 173.051 152.563 172.263C152.478 171.485 152.229 170.752 151.816 170.064C151.413 169.392 150.969 168.883 150.484 168.536C150.008 168.205 149.518 167.989 149.011 167.889C148.489 167.799 147.973 167.79 147.464 167.862C146.948 167.959 146.455 168.095 145.987 168.27C145.511 168.471 145.066 168.685 144.65 168.913C144.235 169.142 143.878 169.345 143.581 169.523L137.018 173.465L141.776 181.388Z" fill="#F97372"/>
<path d="M178.806 137.752C180.331 138.684 181.471 139.721 182.225 140.864C182.996 142.016 183.452 143.241 183.594 144.539C183.736 145.837 183.593 147.192 183.165 148.606C182.744 150.045 182.11 151.508 181.262 152.997C180.558 154.233 179.75 155.357 178.838 156.368C177.917 157.396 176.914 158.199 175.829 158.777C174.761 159.364 173.622 159.67 172.412 159.694C171.209 159.743 169.966 159.402 168.683 158.672L153.881 150.24C153.469 150.005 153.05 149.913 152.623 149.963C152.211 150.023 151.866 150.298 151.586 150.789C151.46 151.011 151.345 151.249 151.241 151.505C151.153 151.77 151.061 152.042 150.964 152.323L147.946 150.604C148.059 150.185 148.179 149.772 148.308 149.362C148.427 148.969 148.626 148.526 148.906 148.035C149.339 147.275 149.777 146.654 150.22 146.171C150.653 145.705 151.121 145.363 151.622 145.145C152.131 144.952 152.673 144.884 153.25 144.94C153.842 145.004 154.497 145.199 155.214 145.524C154.935 144.651 154.714 143.77 154.55 142.879C154.401 141.998 154.349 141.076 154.393 140.115C154.453 139.163 154.641 138.169 154.959 137.133C155.26 136.088 155.741 134.988 156.399 133.831C156.959 132.849 157.663 131.981 158.512 131.227C159.352 130.489 160.293 129.923 161.335 129.531C162.368 129.154 163.462 129.001 164.617 129.072C165.789 129.152 166.976 129.535 168.18 130.22C169.495 130.969 170.501 131.836 171.199 132.821C171.912 133.815 172.383 134.849 172.61 135.922C172.854 137.005 172.888 138.105 172.713 139.222C172.538 140.339 172.236 141.405 171.805 142.418L168.611 150.071C168.302 150.797 168.261 151.476 168.488 152.109C168.722 152.767 169.337 153.38 170.335 153.948C171.872 154.823 173.261 154.944 174.504 154.309C175.754 153.699 176.915 152.452 177.989 150.567C179.09 148.634 179.499 146.958 179.217 145.539C178.95 144.128 178.037 142.895 176.478 141.839L178.806 137.752ZM164.949 150.754C164.894 150.261 164.928 149.704 165.051 149.082C165.182 148.485 165.367 147.846 165.608 147.165C165.849 146.484 166.121 145.768 166.423 145.017C166.741 144.275 167.051 143.528 167.353 142.777C167.693 141.922 167.949 141.103 168.123 140.32C168.296 139.538 168.356 138.806 168.303 138.126C168.25 137.445 168.062 136.835 167.741 136.295C167.435 135.764 166.965 135.318 166.331 134.957C165.603 134.542 164.898 134.288 164.217 134.194C163.528 134.116 162.88 134.166 162.274 134.346C161.659 134.541 161.095 134.87 160.58 135.331C160.065 135.793 159.613 136.365 159.225 137.046C158.982 137.474 158.75 137.992 158.529 138.6C158.324 139.218 158.157 139.878 158.03 140.582C157.902 141.285 157.838 142.004 157.839 142.739C157.847 143.499 157.954 144.231 158.161 144.936C158.368 145.641 158.687 146.296 159.12 146.899C159.553 147.502 160.133 148.011 160.862 148.426L164.949 150.754Z" fill="#F97372"/>
<path d="M192.943 96.27L193.029 101.301L178.867 101.543L193.282 116.091L193.394 122.68L180.227 109.149L164.117 123.4L164.006 116.92L177.098 105.265L173.946 101.627L163.748 101.801L163.662 96.7706L192.943 96.27Z" fill="#F97372"/>
<path d="M171.948 85.9364C171.305 86.2471 170.568 86.5292 169.74 86.7826C168.92 87.0516 168.049 87.2352 167.124 87.3334C166.216 87.4221 165.268 87.3955 164.282 87.2537C163.305 87.1275 162.321 86.834 161.331 86.3733C160.366 85.9186 159.416 85.2621 158.48 84.4038C157.529 83.555 156.643 82.4631 155.821 81.1283C155.372 80.3987 154.992 79.573 154.681 78.6512C154.354 77.7389 154.162 76.7657 154.103 75.7315C154.054 74.7128 154.14 73.6535 154.362 72.5535C154.609 71.4595 155.058 70.3476 155.711 69.2176C156.374 68.1032 157.254 66.994 158.351 65.8902C159.463 64.7768 160.858 63.704 162.534 62.6716C164.599 61.4003 166.635 60.5529 168.644 60.1295C170.668 59.6965 172.555 59.6153 174.306 59.8858C176.066 60.1719 177.659 60.7757 179.082 61.6972C180.516 62.6342 181.677 63.8244 182.566 65.268C183.369 66.5718 183.937 67.8065 184.269 68.9719C184.611 70.1529 184.778 71.2593 184.772 72.2911C184.765 73.323 184.609 74.2862 184.303 75.1807C184.013 76.0658 183.622 76.8738 183.131 77.6048C182.664 78.3418 182.129 79.003 181.526 79.5884C180.933 80.1892 180.332 80.7089 179.725 81.1474L177.258 77.1428C178.816 75.8835 179.78 74.4764 180.15 72.9214C180.529 71.3819 180.188 69.7507 179.127 68.0278C178.401 66.8481 177.525 65.9641 176.499 65.3756C175.482 64.8027 174.358 64.489 173.125 64.4345C171.918 64.3859 170.61 64.5917 169.202 65.052C167.82 65.5182 166.399 66.2005 164.94 67.099C163.294 68.1123 161.97 69.1421 160.966 70.1886C159.977 71.2255 159.272 72.2701 158.849 73.3224C158.442 74.3651 158.306 75.4124 158.44 76.4645C158.599 77.5226 159.004 78.5793 159.654 79.6348C160.113 80.3799 160.68 81.0049 161.354 81.5098C162.045 82.0052 162.809 82.359 163.646 82.5713C164.499 82.7741 165.42 82.8275 166.41 82.7317C167.4 82.6358 168.424 82.3692 169.482 81.9317L171.948 85.9364Z" fill="#F97372"/>
<path d="M146.444 37.4891L137.625 32.5881L139.75 28.7639L161.787 41.0098L159.662 44.834L150.842 39.933L138.742 61.707L134.344 59.2632L146.444 37.4891Z" fill="#F97372"/>
<path d="M124.766 43.5929C124.571 44.8698 124.139 46.1204 123.47 47.3447C122.801 48.569 121.922 49.6667 120.832 50.6376C119.743 51.6085 118.452 52.389 116.96 52.9789C115.486 53.5869 113.846 53.8949 112.042 53.9029C110.073 53.9115 108.249 53.6005 106.569 52.9699C104.907 52.321 103.463 51.352 102.236 50.0632C101.027 48.756 100.072 47.1195 99.3702 45.1538C98.6689 43.1882 98.3123 40.8746 98.3006 38.2132C98.2928 36.4267 98.4771 34.8126 98.8536 33.3708C99.2482 31.9108 99.7711 30.6142 100.422 29.4811C101.092 28.3297 101.862 27.3419 102.734 26.5178C103.605 25.6754 104.522 24.9878 105.486 24.4549C106.468 23.9037 107.469 23.4982 108.489 23.2385C109.508 22.9606 110.492 22.8195 111.44 22.8154C113.445 22.8066 115.279 23.0993 116.94 23.6935C118.602 24.2878 120.027 25.2021 121.218 26.4365C122.426 27.6525 123.363 29.1888 124.027 31.0452C124.71 32.8834 125.057 35.0512 125.067 37.5485L125.079 40.0641L103.669 40.1583C103.693 41.5801 103.899 42.8735 104.287 44.0385C104.675 45.1852 105.226 46.1672 105.941 46.9843C106.655 47.8015 107.515 48.4358 108.52 48.8871C109.542 49.3201 110.692 49.5338 111.968 49.5282C113.262 49.5225 114.355 49.3354 115.247 48.9668C116.138 48.5983 116.884 48.1302 117.483 47.5625C118.082 46.9947 118.562 46.3637 118.923 45.6694C119.303 44.975 119.619 44.29 119.871 43.6144L124.766 43.5929ZM120.002 36.0669C119.96 34.6452 119.735 33.3792 119.329 32.269C118.942 31.1588 118.391 30.2315 117.676 29.4872C116.98 28.7246 116.139 28.1541 115.153 27.7756C114.167 27.3789 113.073 27.1832 111.869 27.1885C110.721 27.1936 109.665 27.4261 108.701 27.8861C107.736 28.3278 106.891 28.9513 106.166 29.7566C105.44 30.5437 104.861 31.485 104.428 32.5807C103.995 33.6581 103.736 34.8442 103.651 36.1388L120.002 36.0669Z" fill="#F97372"/>
<path d="M95.869 52.3147L76.0729 63.3017L79.5495 69.5657L75.4373 71.848L69.8376 61.7587L73.2087 59.8877C72.9546 57.7771 72.5394 55.7142 71.963 53.6991C71.3778 51.668 70.6925 49.682 69.9072 47.7411C69.113 45.7843 68.2347 43.8638 67.2723 41.9795C66.3099 40.0952 65.3112 38.2206 64.2762 36.3558L82.1595 26.4303L94.2479 48.2107L97.8581 46.207L103.458 56.2963L99.3455 58.5786L95.869 52.3147ZM89.8488 50.6522L79.8835 32.6972L70.6071 37.8457C71.3005 39.358 72.0081 40.9147 72.7299 42.5156C73.4675 44.1076 74.1618 45.7342 74.8127 47.3952C75.4707 49.0315 76.0481 50.6917 76.5449 52.3757C77.0577 54.0509 77.4359 55.7278 77.6795 57.4064L89.8488 50.6522Z" fill="#F97372"/>
<path d="M33.5036 97.9062C31.7859 97.4125 30.4116 96.7147 29.3809 95.8128C28.3325 94.9064 27.5678 93.8464 27.0866 92.6329C26.6055 91.4194 26.3835 90.0744 26.4208 88.5979C26.4449 87.0992 26.6683 85.5195 27.091 83.859C27.4417 82.481 27.9225 81.1832 28.5335 79.9656C29.1489 78.7302 29.9027 77.6901 30.795 76.845C31.6696 75.9954 32.6869 75.3985 33.8467 75.0542C34.9934 74.6877 36.2822 74.6865 37.7131 75.0508L54.2218 79.253C54.6811 79.3699 55.1101 79.3475 55.5087 79.1856C55.8896 79.0192 56.1498 78.6622 56.2892 78.1145C56.3522 77.8672 56.3997 77.6066 56.4318 77.3326C56.4463 77.0541 56.463 76.7668 56.4819 76.4707L59.8473 77.3273C59.8498 77.7606 59.8436 78.1916 59.8285 78.6204C59.8179 79.0316 59.7429 79.511 59.6035 80.0586C59.3876 80.9066 59.1304 81.6217 58.8316 82.204C58.5374 82.7687 58.1774 83.2225 57.7515 83.5656C57.3124 83.8865 56.8075 84.0965 56.2367 84.1958C55.6483 84.2905 54.9652 84.2766 54.1876 84.1539C54.6884 84.9209 55.1359 85.712 55.5304 86.5272C55.9071 87.3379 56.2018 88.2123 56.4145 89.1506C56.6094 90.0843 56.6913 91.0927 56.6602 92.1757C56.6467 93.2633 56.4758 94.4519 56.1475 95.7415C55.8687 96.8368 55.42 97.8606 54.8014 98.813C54.1873 99.7476 53.43 100.542 52.5297 101.197C51.6339 101.835 50.6196 102.272 49.4867 102.511C48.3362 102.745 47.0896 102.691 45.747 102.349C44.2807 101.976 43.0806 101.407 42.1466 100.642C41.1949 99.8734 40.4669 99.0015 39.9626 98.0266C39.4406 97.0473 39.1157 95.9959 38.9879 94.8723C38.8601 93.7488 38.8692 92.6413 39.0154 91.5499L40.0652 83.3242C40.1703 82.5421 40.0294 81.8761 39.6427 81.3262C39.2428 80.7541 38.4864 80.3264 37.3734 80.0431C35.6599 79.607 34.2882 79.8597 33.2584 80.8015C32.2155 81.7211 31.4265 83.232 30.8914 85.3342C30.3427 87.4894 30.3929 89.214 31.0417 90.5077C31.6728 91.797 32.8802 92.7439 34.6638 93.3484L33.5036 97.9062ZM43.4147 81.6938C43.5984 82.1544 43.7132 82.7009 43.7592 83.3333C43.7919 83.9436 43.7824 84.609 43.7307 85.3294C43.679 86.0499 43.6072 86.8122 43.5154 87.6165C43.4058 88.4163 43.3051 89.2183 43.2133 90.0226C43.1121 90.9374 43.0819 91.795 43.1227 92.5954C43.1635 93.3958 43.2997 94.117 43.5312 94.7591C43.7628 95.4012 44.1054 95.9398 44.5589 96.3751C44.9948 96.8058 45.566 97.1111 46.2727 97.291C47.0853 97.4978 47.8322 97.5563 48.5135 97.4663C49.1992 97.3587 49.8103 97.1381 50.3467 96.8043C50.8876 96.453 51.345 95.9863 51.7189 95.4043C52.0928 94.8222 52.3764 94.1514 52.5697 93.3918C52.6911 92.9148 52.7775 92.3537 52.8289 91.7084C52.8627 91.0586 52.8479 90.3777 52.7846 89.6656C52.7213 88.9535 52.5917 88.2433 52.3958 87.5351C52.1867 86.8047 51.889 86.127 51.5026 85.5019C51.1162 84.8769 50.6344 84.331 50.0572 83.8643C49.48 83.3976 48.7851 83.0608 47.9725 82.854L43.4147 81.6938Z" fill="#F97372"/>
<path d="M30.8794 141.652L29.4618 136.825L40.7957 133.497L36.9435 120.379L25.6096 123.707L24.1843 118.853L52.2829 110.602L53.7082 115.455L41.1412 119.146L44.9935 132.264L57.5605 128.573L58.9781 133.401L30.8794 141.652Z" fill="#F97372"/>
<path d="M55.3749 153.837C54.308 155.059 53.4683 156.298 52.8558 157.554C52.2313 158.824 51.8701 160.069 51.772 161.29C51.674 162.512 51.8502 163.682 52.3008 164.801C52.7256 165.922 53.4668 166.944 54.5242 167.867C55.5816 168.79 56.6944 169.387 57.8625 169.656C59.0186 169.94 60.195 169.95 61.3917 169.688C62.5884 169.426 63.7736 168.9 64.9474 168.11C66.1091 167.333 67.2235 166.334 68.2905 165.112C69.3694 163.876 70.2271 162.616 70.8636 161.333C71.488 160.063 71.8493 158.818 71.9473 157.597C72.0454 156.376 71.882 155.205 71.4572 154.083C71.0203 152.976 70.2732 151.961 69.2158 151.038C68.1584 150.115 67.0516 149.512 65.8954 149.228C64.7136 148.947 63.5243 148.937 62.3276 149.199C61.131 149.461 59.9458 149.987 58.772 150.777C57.5862 151.581 56.4539 152.601 55.3749 153.837ZM51.5847 150.528C53.1672 148.716 54.8272 147.285 56.5649 146.237C58.2906 145.203 60.0364 144.561 61.8024 144.312C63.5685 144.063 65.3298 144.222 67.0865 144.787C68.8174 145.354 70.4862 146.339 72.0929 147.742C73.6997 149.145 74.9009 150.665 75.6968 152.304C76.4807 153.956 76.8685 155.674 76.8603 157.457C76.852 159.241 76.452 161.057 75.6601 162.907C74.8563 164.77 73.6631 166.608 72.0807 168.421C70.5222 170.206 68.8801 171.616 67.1545 172.65C65.4288 173.684 63.6829 174.326 61.9169 174.575C60.1509 174.824 58.4024 174.665 56.6715 174.097C54.9286 173.544 53.2537 172.566 51.647 171.163C50.0403 169.76 48.845 168.233 48.0611 166.581C47.2515 164.93 46.8509 163.213 46.8591 161.43C46.8673 159.646 47.2674 157.83 48.0593 155.98C48.8511 154.131 50.0263 152.313 51.5847 150.528Z" fill="#F97372"/>
<path d="M93.9154 178.374L91.4273 177.849C90.7674 177.71 90.0637 177.645 89.3164 177.655C88.5691 177.665 87.8653 177.777 87.2052 177.991C86.5413 178.224 85.9637 178.577 85.4724 179.051C84.9632 179.521 84.6258 180.148 84.46 180.933C84.3395 181.504 84.3495 182.074 84.49 182.644C84.6088 183.228 84.8676 183.767 85.2663 184.261C85.6434 184.769 86.1642 185.215 86.8287 185.597C87.4931 185.98 88.298 186.271 89.2433 186.47C89.7427 186.576 90.3464 186.629 91.0543 186.629C91.7621 186.63 92.4875 186.503 93.2303 186.25C93.9515 186.011 94.646 185.59 95.3139 184.986C95.9602 184.396 96.4733 183.554 96.8533 182.46L101.455 183.432C101.059 184.69 100.563 185.759 99.9672 186.639C99.3677 187.537 98.6983 188.281 97.959 188.87C97.2198 189.459 96.4337 189.917 95.6007 190.244C94.7499 190.568 93.902 190.789 93.057 190.909C92.1941 191.025 91.3482 191.06 90.5192 191.016C89.6902 190.971 88.9101 190.872 88.1788 190.717C86.8946 190.446 85.6641 190.009 84.4871 189.407C83.3064 188.822 82.2972 188.087 81.4593 187.202C80.5999 186.331 79.9743 185.323 79.5826 184.179C79.1908 183.034 79.1381 181.784 79.4244 180.428C79.6089 179.554 79.8976 178.805 80.2905 178.18C80.6795 177.573 81.1319 177.063 81.6476 176.65C82.1454 176.233 82.6817 175.9 83.2564 175.648C83.8274 175.415 84.3782 175.233 84.9087 175.103L84.9369 174.969C84.4564 174.775 83.943 174.471 83.3969 174.057C82.8469 173.661 82.368 173.15 81.96 172.524C81.5482 171.915 81.2576 171.174 81.0882 170.3C80.8972 169.44 80.9223 168.439 81.1633 167.297C81.5023 165.692 82.1439 164.374 83.0881 163.344C84.0144 162.31 85.1134 161.517 86.3849 160.966C87.6527 160.433 89.0218 160.126 90.492 160.045C91.9661 159.946 93.4076 160.046 94.8167 160.343C96.6359 160.728 98.2368 161.308 99.6192 162.084C100.984 162.857 102.111 163.784 103 164.866C103.89 165.948 104.529 167.155 104.919 168.485C105.291 169.812 105.387 171.211 105.206 172.682L100.257 171.637C100.354 170.558 100.236 169.62 99.9009 168.823C99.5662 168.026 99.1033 167.35 98.5122 166.797C97.9211 166.244 97.2341 165.791 96.4513 165.44C95.6507 165.084 94.8223 164.816 93.9662 164.635C91.7011 164.157 89.9106 164.254 88.5949 164.926C87.2613 165.595 86.4325 166.696 86.1086 168.23C85.9692 168.89 85.952 169.501 86.0568 170.063C86.1437 170.622 86.3903 171.131 86.7966 171.589C87.199 172.065 87.7827 172.477 88.5477 172.825C89.291 173.187 90.2513 173.492 91.4285 173.741C91.6603 173.79 91.9297 173.838 92.2367 173.884C92.5221 173.944 92.8183 173.997 93.1252 174.043C93.4144 174.086 93.7054 174.119 93.9983 174.144C94.2874 174.186 94.5498 174.223 94.7855 174.254L93.9154 178.374Z" fill="#F97372"/>
</svg>
