<svg width="338" height="320" viewBox="0 0 338 320" fill="none" xmlns="http://www.w3.org/2000/svg">
<path d="M174.92 251.583L169.889 251.644L169.614 229.197L169.504 229.198L155.398 251.822L149.629 251.893L149.27 222.61L154.328 222.548L154.603 244.996L154.713 244.994L168.792 222.37L174.561 222.3L174.92 251.583Z" fill="#F97372"/>
<path d="M215.544 238.395L210.94 240.423L201.892 219.877L201.792 219.921L197.677 246.263L192.397 248.588L180.594 221.787L185.223 219.748L194.271 240.294L194.371 240.249L198.462 213.919L203.742 211.593L215.544 238.395Z" fill="#F97372"/>
<path d="M230.373 222.401L238.089 214.267L233.141 209.272C230.638 206.746 228.67 204.503 227.239 202.542C225.821 200.594 224.853 198.846 224.335 197.3C223.804 195.766 223.691 194.402 223.995 193.208C224.299 192.014 224.927 190.914 225.881 189.909C226.232 189.539 226.599 189.271 226.981 189.106C227.338 188.942 227.645 188.844 227.902 188.811L231.116 191.86C230.428 192.187 229.896 192.55 229.52 192.946C229.256 193.224 229.052 193.533 228.906 193.872C228.747 194.224 228.694 194.638 228.745 195.114C228.784 195.603 228.947 196.172 229.235 196.822C229.536 197.485 230.008 198.259 230.65 199.145C231.28 200.044 232.106 201.066 233.129 202.213C234.14 203.372 235.393 204.7 236.89 206.195L244.556 213.807L230.085 229.062L208.839 208.907L212.301 205.257L230.373 222.401Z" fill="#F97372"/>
<path d="M244.82 187.866C246.334 188.45 247.785 188.814 249.175 188.958C250.582 189.11 251.876 189.022 253.057 188.696C254.237 188.369 255.276 187.802 256.173 186.995C257.081 186.212 257.787 185.165 258.291 183.855C258.796 182.546 258.975 181.296 258.827 180.106C258.697 178.923 258.304 177.814 257.647 176.78C256.991 175.745 256.09 174.812 254.946 173.981C253.818 173.156 252.497 172.451 250.983 171.868C249.452 171.278 247.975 170.904 246.551 170.747C245.144 170.595 243.85 170.683 242.67 171.009C241.489 171.336 240.445 171.891 239.538 172.674C238.647 173.464 237.95 174.514 237.445 175.824C236.94 177.134 236.753 178.38 236.883 179.564C237.024 180.77 237.423 181.891 238.079 182.925C238.735 183.96 239.636 184.893 240.781 185.724C241.942 186.563 243.289 187.277 244.82 187.866ZM243.011 192.561C240.766 191.696 238.853 190.627 237.272 189.354C235.709 188.088 234.508 186.668 233.668 185.094C232.829 183.52 232.374 181.812 232.303 179.967C232.243 178.147 232.596 176.241 233.362 174.251C234.129 172.261 235.146 170.611 236.412 169.302C237.695 167.999 239.176 167.046 240.854 166.442C242.533 165.838 244.376 165.591 246.385 165.701C248.411 165.817 250.547 166.308 252.792 167.173C255.003 168.025 256.891 169.084 258.454 170.351C260.017 171.617 261.219 173.037 262.058 174.611C262.897 176.185 263.347 177.882 263.408 179.702C263.485 181.529 263.14 183.438 262.374 185.428C261.607 187.418 260.582 189.065 259.299 190.368C258.026 191.694 256.55 192.659 254.872 193.263C253.194 193.867 251.35 194.114 249.341 194.004C247.332 193.894 245.222 193.413 243.011 192.561Z" fill="#F97372"/>
<path d="M250.792 143.039L239.722 136.408L239.575 130.175L254.825 140.072L268.865 130.004L269.014 136.319L258.981 143.503L269.333 149.878L269.476 155.919L254.973 146.36L240.21 157.074L240.06 150.732L250.792 143.039Z" fill="#F97372"/>
<path d="M256.028 93.1634L258.056 97.7678L247.246 102.529L252.756 115.041L263.567 110.28L265.606 114.909L238.805 126.714L236.766 122.084L248.753 116.805L243.242 104.293L231.255 109.572L229.227 104.968L256.028 93.1634Z" fill="#F97372"/>
<path d="M225.754 70.3627C227.058 69.14 228.361 68.3169 229.663 67.8934C230.979 67.457 232.281 67.3428 233.569 67.5509C234.858 67.7589 236.127 68.257 237.376 69.0451C238.651 69.8332 239.894 70.8339 241.104 72.0473C242.108 73.0541 242.976 74.1316 243.709 75.2799C244.455 76.441 244.963 77.6212 245.232 78.8203C245.514 80.0066 245.506 81.186 245.207 82.3586C244.935 83.5312 244.276 84.6388 243.231 85.6814L231.168 97.71C230.832 98.0447 230.632 98.4247 230.567 98.85C230.515 99.2624 230.688 99.6686 231.087 100.069C231.267 100.25 231.467 100.424 231.686 100.592C231.918 100.747 232.156 100.908 232.401 101.076L229.942 103.528C229.568 103.308 229.201 103.082 228.84 102.85C228.493 102.63 228.119 102.32 227.72 101.92C227.102 101.301 226.62 100.713 226.273 100.159C225.938 99.6168 225.733 99.0751 225.656 98.5337C225.605 97.9922 225.684 97.4509 225.891 96.9098C226.11 96.3559 226.472 95.7764 226.976 95.1712C226.06 95.2086 225.152 95.188 224.25 95.1094C223.36 95.0179 222.458 94.8233 221.544 94.5255C220.642 94.2149 219.734 93.7689 218.819 93.1875C217.892 92.6191 216.958 91.8637 216.019 90.9214C215.221 90.1211 214.571 89.2114 214.07 88.1924C213.581 87.1863 213.286 86.1289 213.185 85.0202C213.096 83.9244 213.24 82.829 213.615 81.7339C214.003 80.6259 214.688 79.5828 215.669 78.6045C216.74 77.5362 217.843 76.7965 218.978 76.3857C220.126 75.9619 221.248 75.7831 222.343 75.8491C223.452 75.9022 224.521 76.1615 225.552 76.627C226.582 77.0925 227.529 77.6674 228.392 78.3518L234.92 83.4655C235.538 83.9562 236.182 84.1762 236.852 84.1256C237.548 84.075 238.303 83.6443 239.116 82.8334C240.368 81.5848 240.854 80.2772 240.572 78.9104C240.316 77.5437 239.422 76.0923 237.89 74.5563C236.32 72.9815 234.813 72.1415 233.37 72.0363C231.939 71.9183 230.507 72.4705 229.075 73.6931L225.754 70.3627ZM234.605 87.1773C234.115 87.0993 233.587 86.9181 233.02 86.6337C232.479 86.3494 231.913 86.0006 231.32 85.5872C230.728 85.1739 230.11 84.7219 229.466 84.2312C228.835 83.7276 228.198 83.2304 227.554 82.7397C226.82 82.1844 226.099 81.7193 225.39 81.3445C224.682 80.9697 223.993 80.7174 223.323 80.5875C222.653 80.4577 222.015 80.4761 221.408 80.6428C220.815 80.7966 220.261 81.131 219.744 81.6459C219.15 82.238 218.718 82.8496 218.446 83.4809C218.188 84.125 218.064 84.7629 218.076 85.3945C218.101 86.039 218.268 86.6709 218.576 87.29C218.885 87.9092 219.316 88.4963 219.869 89.0513C220.217 89.3999 220.654 89.7614 221.182 90.136C221.723 90.4976 222.316 90.8336 222.96 91.1439C223.604 91.4542 224.28 91.7065 224.989 91.9008C225.723 92.0952 226.458 92.1865 227.193 92.1746C227.927 92.1628 228.643 92.0284 229.339 91.7716C230.036 91.5148 230.681 91.0904 231.275 90.4983L234.605 87.1773Z" fill="#F97372"/>
<path d="M212.855 56.106L202.608 51.5581L199.558 57.8925C198.016 61.0971 196.56 63.7021 195.192 65.7073C193.83 67.6959 192.508 69.193 191.224 70.1987C189.956 71.2118 188.709 71.7751 187.482 71.8886C186.255 72.0021 185.008 71.7779 183.742 71.2159C183.276 71.0088 182.901 70.7527 182.617 70.4474C182.343 70.1662 182.148 69.91 182.031 69.6787L183.828 65.6298C184.367 66.1682 184.886 66.5483 185.386 66.7701C185.736 66.9254 186.095 67.015 186.464 67.0389C186.849 67.0701 187.257 66.982 187.688 66.7745C188.136 66.5744 188.618 66.2299 189.134 65.741C189.657 65.2354 190.229 64.5318 190.848 63.6301C191.485 62.7357 192.172 61.6147 192.909 60.2669C193.664 58.9264 194.495 57.3009 195.403 55.3903L200.009 45.618L219.229 54.1482L207.349 80.9154L202.75 78.8744L212.855 56.106Z" fill="#F97372"/>
<path d="M183.294 59.9747C183.032 61.2395 182.534 62.4655 181.801 63.6526C181.068 64.8398 180.132 65.8893 178.992 66.8011C177.853 67.713 176.523 68.4239 175.001 68.9339C173.497 69.463 171.844 69.6837 170.041 69.596C168.075 69.5004 166.27 69.0932 164.625 68.3744C163 67.6383 161.609 66.5942 160.452 65.2422C159.315 63.8727 158.447 62.188 157.851 60.1879C157.255 58.1878 157.022 55.8586 157.151 53.2003C157.238 51.416 157.507 49.8139 157.96 48.3941C158.431 46.957 159.022 45.6899 159.732 44.5929C160.462 43.4786 161.283 42.5331 162.197 41.7562C163.112 40.9612 164.065 40.3231 165.055 39.8421C166.065 39.3437 167.086 38.9918 168.118 38.7865C169.151 38.563 170.141 38.4743 171.088 38.5203C173.091 38.6178 174.906 39.0072 176.533 39.6887C178.161 40.3701 179.537 41.3587 180.66 42.6544C181.802 43.9328 182.656 45.5165 183.221 47.4056C183.805 49.2773 184.037 51.4604 183.915 53.9549L183.793 56.4675L162.408 55.4272C162.357 56.8482 162.495 58.1507 162.82 59.3346C163.147 60.5003 163.645 61.5101 164.316 62.364C164.986 63.2179 165.811 63.8968 166.79 64.4007C167.788 64.8873 168.925 65.1616 170.199 65.2236C171.492 65.2864 172.593 65.1575 173.503 64.8368C174.413 64.516 175.182 64.088 175.81 63.5528C176.439 63.0176 176.952 62.4129 177.35 61.7388C177.766 61.0655 178.118 60.3982 178.405 59.7369L183.294 59.9747ZM178.936 52.2069C178.968 50.785 178.812 49.5089 178.465 48.3787C178.137 47.2495 177.636 46.2943 176.962 45.5133C176.307 44.7149 175.498 44.1006 174.533 43.6704C173.569 43.222 172.486 42.9686 171.285 42.9101C170.138 42.8543 169.071 43.0305 168.083 43.4388C167.097 43.8288 166.22 44.4067 165.453 45.1724C164.687 45.9199 164.058 46.8292 163.568 47.9004C163.079 48.9534 162.757 50.1241 162.604 51.4124L178.936 52.2069Z" fill="#F97372"/>
<path d="M112.734 50.8037L119.585 48.2012L135.345 67.8958L135.447 67.8569L134.257 42.6271L140.698 40.1799L151.099 67.556L146.702 69.2263L138.332 47.1925L138.229 47.2314L139.366 72.0134L134.868 73.7225L119.263 54.4369L119.161 54.4757L127.531 76.5095L123.135 78.1798L112.734 50.8037Z" fill="#F97372"/>
<path d="M90.4661 88.3395C89.0891 87.4815 87.7318 86.8505 86.3941 86.4466C85.0409 86.033 83.7538 85.8753 82.5328 85.9736C81.3117 86.0719 80.1847 86.4328 79.1518 87.0564C78.113 87.6549 77.2225 88.5498 76.4802 89.7411C75.7379 90.9325 75.327 92.1262 75.2475 93.3224C75.1525 94.509 75.3299 95.672 75.7797 96.8114C76.2296 97.9508 76.9383 99.0368 77.9059 100.069C78.8579 101.092 80.0225 102.032 81.3994 102.89C82.7919 103.758 84.1724 104.403 85.541 104.827C86.8942 105.24 88.1813 105.398 89.4024 105.3C90.6235 105.201 91.7534 104.853 92.7921 104.254C93.8154 103.646 94.6982 102.747 95.4405 101.555C96.1828 100.364 96.6015 99.1751 96.6965 97.9885C96.7856 96.7768 96.6053 95.6013 96.1554 94.4619C95.7056 93.3224 94.9969 92.2365 94.0293 91.204C93.0463 90.1619 91.8585 89.2071 90.4661 88.3395ZM93.1268 84.0693C95.1691 85.3418 96.8463 86.752 98.1585 88.2999C99.4552 89.8382 100.368 91.4591 100.895 93.1627C101.423 94.8662 101.549 96.6302 101.271 98.4547C100.987 100.254 100.282 102.059 99.1537 103.869C98.0258 105.679 96.7167 107.108 95.2264 108.155C93.7206 109.193 92.0868 109.85 90.3249 110.127C88.563 110.404 86.706 110.299 84.7537 109.813C82.7859 109.317 80.781 108.433 78.7387 107.161C76.7274 105.907 75.0734 104.512 73.7767 102.973C72.4799 101.435 71.5676 99.8141 71.0397 98.1106C70.5118 96.407 70.3896 94.6556 70.6731 92.8562C70.9411 91.0472 71.6391 89.2376 72.767 87.4275C73.8949 85.6173 75.2118 84.1933 76.7175 83.1556C78.2175 82.0927 79.8484 81.4229 81.6102 81.1461C83.3721 80.8693 85.2292 80.974 87.1815 81.4602C89.1337 81.9464 91.1155 82.8161 93.1268 84.0693Z" fill="#F97372"/>
<path d="M56.341 138.317L57.172 133.355L61.1363 134.019L61.1544 133.911C60.5433 133.476 59.9818 132.966 59.4698 132.382C58.9608 131.779 58.5478 131.1 58.2307 130.344C57.8986 129.568 57.682 128.709 57.5808 127.768C57.4827 126.809 57.5315 125.745 57.7272 124.576C57.9861 123.03 58.5311 121.597 59.3623 120.276C60.1934 118.955 61.2941 117.845 62.6644 116.947C64.0346 116.049 65.6729 115.427 67.5792 115.081C69.4674 114.732 71.5982 114.756 73.9714 115.153C76.9379 115.65 79.4127 116.379 81.3959 117.339C83.3641 118.279 84.9111 119.416 86.0369 120.75C87.1657 122.067 87.8958 123.557 88.2272 125.22C88.5585 126.884 88.5632 128.677 88.241 130.601C88.0814 131.554 87.8066 132.423 87.4164 133.208C87.0262 133.993 86.5776 134.685 86.0707 135.284C85.5488 135.862 85.006 136.344 84.4423 136.73C83.8606 137.113 83.3164 137.382 82.8099 137.538L82.7918 137.646L97.4355 140.098L96.6046 145.06L56.341 138.317ZM71.7437 135.906C73.3079 136.168 74.7808 136.258 76.1624 136.175C77.526 136.089 78.7459 135.813 79.8222 135.346C80.9014 134.862 81.7995 134.189 82.5164 133.33C83.2184 132.449 83.6792 131.353 83.899 130.04C84.1278 128.674 84.0553 127.451 83.6816 126.372C83.2928 125.272 82.6672 124.317 81.8047 123.507C80.9423 122.697 79.8804 122.03 78.6191 121.504C77.3399 120.976 75.9182 120.581 74.354 120.319C72.7179 120.045 71.1911 119.946 69.7735 120.023C68.356 120.1 67.0986 120.379 66.0013 120.861C64.9041 121.342 64.0015 122.041 63.2936 122.958C62.5706 123.853 62.0948 124.984 61.8659 126.351C61.6462 127.663 61.7337 128.852 62.1284 129.916C62.5082 130.959 63.1383 131.887 64.0188 132.7C64.9023 133.495 66.0016 134.159 67.3168 134.694C68.632 135.228 70.1076 135.632 71.7437 135.906Z" fill="#F97372"/>
<path d="M75.069 146.991C76.3593 146.93 77.6706 147.107 79.0029 147.521C80.3352 147.935 81.5849 148.58 82.7518 149.457C83.9188 150.333 84.9388 151.444 85.8117 152.791C86.6989 154.115 87.3245 155.662 87.6887 157.429C88.086 159.357 88.1414 161.207 87.8549 162.979C87.5468 164.736 86.8822 166.343 85.861 167.8C84.8183 169.244 83.4027 170.503 81.6142 171.579C79.8258 172.655 77.6282 173.461 75.0215 173.998C73.2718 174.358 71.653 174.497 70.1653 174.412C68.6561 174.314 67.2817 174.057 66.0424 173.642C64.7814 173.214 63.661 172.653 62.681 171.962C61.6831 171.274 60.8278 170.51 60.1151 169.671C59.3809 168.817 58.7857 167.916 58.3298 166.968C57.856 166.023 57.5235 165.086 57.3322 164.158C56.9276 162.194 56.8525 160.339 57.1069 158.593C57.3614 156.847 57.9761 155.268 58.9511 153.858C59.9045 152.433 61.2256 151.212 62.9143 150.194C64.5815 149.161 66.6381 148.393 69.0841 147.889L71.548 147.382L75.8683 168.352C77.2572 168.047 78.4844 167.589 79.5498 166.979C80.5974 166.372 81.4512 165.638 82.1112 164.776C82.7711 163.914 83.2231 162.946 83.4672 161.872C83.6897 160.784 83.6722 159.615 83.4147 158.366C83.1536 157.098 82.7543 156.064 82.217 155.262C81.6797 154.461 81.0736 153.823 80.3987 153.348C79.7238 152.872 79.0104 152.526 78.2584 152.309C77.5027 152.074 76.7688 151.899 76.0567 151.785L75.069 146.991ZM68.6319 153.147C67.2466 153.47 66.0499 153.94 65.0417 154.557C64.0299 155.157 63.2297 155.88 62.6411 156.727C62.031 157.56 61.6378 158.497 61.4615 159.538C61.2673 160.583 61.2916 161.695 61.5344 162.873C61.7662 163.998 62.2027 164.988 62.844 165.842C63.4674 166.7 64.2455 167.405 65.1783 167.958C66.0931 168.514 67.1303 168.896 68.2899 169.103C69.4315 169.315 70.6454 169.335 71.9314 169.163L68.6319 153.147Z" fill="#F97372"/>
<path d="M81.969 193.082L80.6774 190.891C80.3349 190.31 79.9078 189.747 79.3961 189.202C78.8844 188.657 78.3266 188.214 77.7227 187.872C77.1031 187.539 76.4527 187.351 75.7715 187.308C75.081 187.25 74.3903 187.424 73.6994 187.831C73.1969 188.128 72.7828 188.52 72.457 189.008C72.1063 189.49 71.8832 190.045 71.7877 190.673C71.6673 191.294 71.6902 191.979 71.8564 192.727C72.0226 193.476 72.351 194.266 72.8418 195.098C73.101 195.538 73.4693 196.019 73.9468 196.542C74.4242 197.064 75.007 197.514 75.695 197.892C76.3581 198.263 77.1379 198.491 78.0346 198.576C78.9062 198.654 79.8737 198.465 80.9371 198.007L83.3258 202.058C82.1304 202.615 81.0068 202.971 79.9552 203.125C78.8879 203.289 77.8874 203.297 76.9537 203.149C76.0201 203.001 75.1514 202.73 74.3479 202.336C73.535 201.927 72.7993 201.451 72.1407 200.908C71.4728 200.35 70.8755 199.749 70.349 199.108C69.8224 198.466 69.3693 197.823 68.9897 197.179C68.3231 196.048 67.8149 194.846 67.4652 193.571C67.0997 192.305 66.9607 191.064 67.0482 189.849C67.1107 188.627 67.4321 187.485 68.0124 186.423C68.5927 185.362 69.4795 184.479 70.6729 183.775C71.4424 183.322 72.1903 183.029 72.9166 182.897C73.6272 182.774 74.3088 182.764 74.9615 182.865C75.6048 182.952 76.2132 183.122 76.7865 183.377C77.3441 183.64 77.8499 183.924 78.3041 184.228L78.4218 184.158C78.2411 183.672 78.119 183.088 78.0554 182.406C77.9762 181.733 78.03 181.035 78.2169 180.311C78.388 179.597 78.739 178.882 79.2697 178.167C79.7754 177.445 80.5308 176.788 81.5358 176.196C82.9491 175.363 84.3544 174.947 85.7519 174.948C87.1401 174.934 88.4667 175.209 89.7317 175.776C90.9809 176.351 92.1315 177.154 93.1835 178.184C94.2511 179.206 95.1506 180.336 95.8821 181.577C96.8265 183.179 97.4787 184.751 97.8389 186.296C98.1899 187.824 98.2662 189.281 98.068 190.668C97.8698 192.055 97.4113 193.341 96.6925 194.526C95.9645 195.696 94.9969 196.711 93.7898 197.571L91.2205 193.213C92.0822 192.557 92.6942 191.837 93.0566 191.052C93.4191 190.266 93.6049 189.469 93.6143 188.659C93.6236 187.85 93.4938 187.038 93.225 186.223C92.9468 185.392 92.5856 184.6 92.1412 183.846C90.9653 181.852 89.6853 180.596 88.3012 180.079C86.9078 179.546 85.5359 179.678 84.1854 180.474C83.6044 180.817 83.1418 181.217 82.7975 181.673C82.4439 182.115 82.2351 182.64 82.1711 183.249C82.0913 183.867 82.1812 184.576 82.4408 185.375C82.6755 186.168 83.0983 187.083 83.7094 188.119C83.8298 188.323 83.9765 188.554 84.1496 188.812C84.2977 189.063 84.4583 189.318 84.6314 189.575C84.7953 189.817 84.967 190.055 85.1465 190.287C85.3104 190.529 85.4603 190.748 85.5964 190.943L81.969 193.082Z" fill="#F97372"/>
<path d="M96.9682 209.935C95.9402 211.19 95.1398 212.455 94.5671 213.73C93.9828 215.019 93.6608 216.275 93.6012 217.498C93.5415 218.722 93.7544 219.886 94.24 220.991C94.6998 222.098 95.4727 223.096 96.5586 223.985C97.6444 224.875 98.7754 225.436 99.9514 225.669C101.116 225.916 102.292 225.889 103.48 225.59C104.668 225.29 105.836 224.727 106.984 223.901C108.121 223.088 109.203 222.054 110.232 220.799C111.271 219.53 112.089 218.244 112.685 216.941C113.269 215.652 113.591 214.396 113.651 213.173C113.71 211.949 113.51 210.784 113.05 209.677C112.579 208.584 111.8 207.592 110.714 206.703C109.628 205.813 108.503 205.245 107.339 204.998C106.149 204.754 104.96 204.782 103.772 205.081C102.584 205.381 101.416 205.944 100.267 206.77C99.1076 207.611 98.0078 208.666 96.9682 209.935ZM93.076 206.747C94.6007 204.886 96.215 203.404 97.9189 202.302C99.6112 201.214 101.336 200.518 103.093 200.213C104.851 199.909 106.616 200.012 108.39 200.522C110.138 201.035 111.837 201.967 113.487 203.318C115.137 204.67 116.385 206.152 117.232 207.765C118.067 209.391 118.509 211.096 118.557 212.879C118.604 214.662 118.262 216.49 117.528 218.363C116.783 220.251 115.648 222.126 114.124 223.987C112.622 225.82 111.025 227.281 109.333 228.369C107.64 229.457 105.916 230.153 104.158 230.458C102.401 230.762 100.648 230.658 98.9005 230.145C97.141 229.646 95.4363 228.721 93.7863 227.37C92.1363 226.018 90.8937 224.529 90.0583 222.903C89.1973 221.278 88.7429 219.575 88.6951 217.792C88.6473 216.009 88.9901 214.181 89.7235 212.307C90.4568 210.434 91.5743 208.581 93.076 206.747Z" fill="#F97372"/>
</svg>
