<svg width="342" height="328" viewBox="0 0 342 328" fill="none" xmlns="http://www.w3.org/2000/svg">
<path d="M72.1437 233.865C72.8706 232.922 73.2512 231.941 73.2857 230.923C73.3064 229.916 72.8395 228.862 71.8849 227.759C70.9184 226.643 69.9425 226.017 68.9571 225.882C67.958 225.758 66.932 226.008 65.8793 226.63L62.8187 223.095C63.6575 222.393 64.5637 221.921 65.5373 221.681C66.4971 221.453 67.4857 221.453 68.5032 221.681C69.5087 221.896 70.5242 222.331 71.5497 222.986C72.5495 223.639 73.5088 224.497 74.4276 225.558C75.3463 226.619 76.0575 227.691 76.5612 228.774C77.0649 229.857 77.3509 230.912 77.4193 231.938C77.4877 232.963 77.3462 233.942 76.9949 234.873C76.618 235.802 76.0151 236.638 75.1864 237.379L72.1437 233.865ZM85.9158 232.393L82.6226 228.59L99.5943 213.895L99.5227 213.813L73.1365 217.634L69.36 213.272L91.4997 194.103L94.8109 197.927L77.8391 212.622L77.9107 212.704L104.279 208.863L108.056 213.224L85.9158 232.393Z" fill="#F97372"/>
<path d="M120.605 255.109L116.168 252.738L126.748 232.938L126.651 232.887L103.386 245.908L98.2974 243.189L112.099 217.36L116.561 219.744L105.981 239.544L106.077 239.596L129.318 226.561L134.407 229.28L120.605 255.109Z" fill="#F97372"/>
<path d="M160.157 263.818L155.168 263.169L156.692 251.455L143.135 249.691L141.611 261.404L136.594 260.752L140.373 231.711L145.389 232.364L143.699 245.352L157.257 247.116L158.947 234.128L163.936 234.777L160.157 263.818Z" fill="#F97372"/>
<path d="M194.602 250.63C194.915 252.39 194.894 253.931 194.538 255.254C194.185 256.594 193.57 257.747 192.693 258.714C191.815 259.68 190.705 260.471 189.363 261.088C188.007 261.726 186.49 262.221 184.813 262.573C183.421 262.865 182.045 263.004 180.682 262.992C179.302 262.983 178.036 262.764 176.885 262.335C175.737 261.924 174.753 261.274 173.933 260.384C173.099 259.516 172.531 258.359 172.228 256.914L168.732 240.241C168.635 239.777 168.426 239.402 168.105 239.116C167.788 238.847 167.353 238.77 166.8 238.886C166.55 238.939 166.295 239.011 166.035 239.103C165.778 239.212 165.513 239.324 165.239 239.437L164.526 236.038C164.914 235.845 165.304 235.661 165.696 235.486C166.069 235.314 166.533 235.171 167.086 235.055C167.942 234.875 168.698 234.791 169.352 234.803C169.988 234.819 170.555 234.942 171.05 235.173C171.531 235.426 171.942 235.787 172.283 236.256C172.627 236.743 172.915 237.362 173.147 238.114C173.616 237.327 174.129 236.577 174.687 235.864C175.249 235.168 175.904 234.519 176.653 233.915C177.406 233.329 178.275 232.811 179.261 232.362C180.244 231.895 181.386 231.526 182.688 231.252C183.795 231.021 184.911 230.973 186.039 231.109C187.148 231.249 188.195 231.579 189.18 232.099C190.146 232.622 190.986 233.34 191.699 234.252C192.415 235.183 192.916 236.326 193.2 237.681C193.511 239.162 193.528 240.49 193.253 241.665C192.982 242.859 192.52 243.896 191.866 244.778C191.217 245.678 190.416 246.433 189.463 247.042C188.511 247.651 187.512 248.131 186.468 248.48L178.62 251.159C177.872 251.409 177.336 251.829 177.013 252.418C176.675 253.029 176.624 253.897 176.86 255.021C177.223 256.751 178.053 257.872 179.352 258.382C180.637 258.913 182.341 258.956 184.464 258.511C186.641 258.055 188.167 257.25 189.043 256.098C189.923 254.964 190.242 253.463 189.999 251.595L194.602 250.63ZM175.682 248.87C176.015 248.502 176.455 248.158 177.002 247.839C177.536 247.541 178.137 247.256 178.807 246.985C179.477 246.715 180.193 246.443 180.955 246.172C181.722 245.918 182.486 245.655 183.249 245.384C184.114 245.072 184.898 244.721 185.598 244.332C186.299 243.943 186.887 243.503 187.361 243.013C187.836 242.522 188.169 241.977 188.36 241.378C188.555 240.797 188.577 240.15 188.427 239.436C188.255 238.616 187.979 237.919 187.598 237.347C187.2 236.779 186.733 236.327 186.197 235.993C185.643 235.662 185.023 235.457 184.336 235.377C183.648 235.298 182.921 235.339 182.154 235.499C181.672 235.6 181.13 235.77 180.528 236.008C179.93 236.264 179.325 236.577 178.714 236.947C178.102 237.317 177.522 237.746 176.972 238.234C176.408 238.744 175.931 239.309 175.54 239.931C175.149 240.554 174.871 241.226 174.706 241.95C174.541 242.674 174.545 243.446 174.717 244.267L175.682 248.87Z" fill="#F97372"/>
<path d="M231.89 241.833L227.582 244.431L221.481 234.316L209.773 241.378L215.874 251.493L211.543 254.105L196.417 229.029L200.749 226.416L207.514 237.631L219.221 230.57L212.456 219.355L216.765 216.756L231.89 241.833Z" fill="#F97372"/>
<path d="M260.2 211.795L257.088 215.749L239.446 201.866L239.379 201.952L248.126 227.138L244.558 231.672L221.544 213.562L224.673 209.586L242.315 223.469L242.382 223.383L233.618 198.219L237.186 193.685L260.2 211.795Z" fill="#F97372"/>
<path d="M277.34 167.178L275.408 174.247L250.21 175.384L250.181 175.49L271.272 189.388L269.456 196.035L241.206 188.316L242.445 183.779L265.182 189.992L265.211 189.886L244.514 176.209L245.782 171.567L270.559 170.314L270.587 170.209L247.851 163.997L249.09 159.46L277.34 167.178Z" fill="#F97372"/>
<path d="M263.726 147.599C265.335 147.392 266.785 147.021 268.077 146.487C269.386 145.951 270.482 145.258 271.365 144.409C272.248 143.56 272.892 142.567 273.297 141.43C273.723 140.31 273.846 139.053 273.666 137.661C273.487 136.269 273.049 135.085 272.354 134.108C271.676 133.129 270.803 132.341 269.733 131.744C268.664 131.147 267.427 130.755 266.025 130.568C264.64 130.379 263.144 130.388 261.535 130.595C259.907 130.805 258.43 131.179 257.103 131.718C255.793 132.254 254.697 132.947 253.814 133.796C252.931 134.645 252.277 135.63 251.851 136.751C251.444 137.869 251.33 139.125 251.51 140.517C251.689 141.909 252.118 143.094 252.795 144.073C253.493 145.067 254.377 145.863 255.446 146.461C256.516 147.058 257.752 147.45 259.154 147.637C260.575 147.821 262.099 147.809 263.726 147.599ZM264.369 152.589C261.983 152.897 259.792 152.867 257.796 152.499C255.818 152.129 254.086 151.451 252.599 150.467C251.112 149.482 249.899 148.196 248.959 146.608C248.039 145.035 247.443 143.191 247.171 141.076C246.898 138.961 247.007 137.026 247.498 135.272C248.006 133.515 248.855 131.972 250.044 130.643C251.233 129.313 252.737 128.219 254.556 127.359C256.393 126.497 258.505 125.913 260.891 125.605C263.242 125.302 265.406 125.336 267.383 125.706C269.361 126.076 271.093 126.753 272.58 127.738C274.067 128.723 275.271 130.001 276.19 131.574C277.128 133.144 277.733 134.986 278.005 137.102C278.278 139.217 278.16 141.153 277.651 142.909C277.163 144.682 276.324 146.233 275.135 147.562C273.947 148.892 272.443 149.986 270.624 150.846C268.804 151.705 266.72 152.286 264.369 152.589Z" fill="#F97372"/>
<path d="M264.845 106.861L258.478 94.762L236.434 106.363L234.091 101.91L260.007 88.2722L271.073 109.3L245.157 122.938L242.801 118.462L264.845 106.861Z" fill="#F97372"/>
<path d="M239.313 90.9081C238.775 91.3784 238.14 91.8457 237.408 92.3099C236.689 92.7865 235.898 93.1948 235.033 93.5348C234.18 93.8614 233.259 94.0871 232.27 94.2121C231.295 94.3496 230.269 94.3276 229.192 94.1461C228.141 93.9637 227.05 93.5828 225.921 93.0034C224.779 92.4373 223.634 91.6198 222.488 90.5508C221.861 89.9666 221.276 89.2713 220.731 88.465C220.175 87.672 219.731 86.7847 219.4 85.8032C219.082 84.8341 218.884 83.7899 218.806 82.6705C218.754 81.5502 218.892 80.3587 219.222 79.096C219.565 77.8458 220.119 76.543 220.884 75.1877C221.662 73.819 222.722 72.4146 224.064 70.9745C225.717 69.201 227.456 67.8437 229.28 66.9026C231.117 65.9482 232.915 65.3691 234.675 65.1655C236.448 64.9742 238.143 65.134 239.761 65.6447C241.391 66.1679 242.827 67.0074 244.067 68.1634C245.187 69.2075 246.062 70.2473 246.691 71.2828C247.334 72.3308 247.789 73.3531 248.057 74.3497C248.324 75.3464 248.429 76.3165 248.372 77.26C248.327 78.1903 248.164 79.073 247.884 79.9083C247.63 80.7427 247.289 81.5221 246.863 82.2464C246.451 82.9832 246.01 83.6436 245.54 84.2276L242.1 81.0207C243.268 79.3933 243.824 77.7808 243.768 76.1835C243.725 74.5985 242.964 73.1162 241.484 71.7365C240.47 70.7919 239.391 70.172 238.245 69.8768C237.113 69.5941 235.946 69.59 234.743 69.8644C233.566 70.1378 232.36 70.6832 231.125 71.5005C229.915 72.3168 228.726 73.3517 227.558 74.6051C226.24 76.0185 225.236 77.3629 224.546 78.6383C223.868 79.9003 223.465 81.0946 223.337 82.2212C223.221 83.3345 223.367 84.3805 223.776 85.3593C224.21 86.3372 224.88 87.2488 225.787 88.094C226.427 88.6906 227.14 89.1428 227.924 89.4506C228.721 89.7451 229.552 89.8836 230.415 89.8662C231.291 89.8354 232.194 89.6425 233.123 89.2875C234.052 88.9324 234.968 88.4036 235.872 87.7012L239.313 90.9081Z" fill="#F97372"/>
<path d="M213.563 63.8967C214.216 62.4115 214.647 60.9781 214.856 59.5965C215.073 58.1982 215.045 56.9018 214.774 55.7072C214.503 54.5126 213.985 53.4485 213.221 52.515C212.48 51.5721 211.467 50.8182 210.183 50.2533C208.898 49.6883 207.658 49.4517 206.462 49.5435C205.274 49.6186 204.148 49.9599 203.085 50.5675C202.021 51.1752 201.047 52.0314 200.163 53.1362C199.286 54.2243 198.522 55.511 197.869 56.9962C197.208 58.498 196.766 59.9565 196.542 61.3714C196.326 62.7697 196.353 64.0662 196.624 65.2608C196.896 66.4554 197.401 67.5241 198.142 68.467C198.89 69.3932 199.906 70.1387 201.191 70.7037C202.476 71.2687 203.712 71.5136 204.9 71.4385C206.112 71.3541 207.25 71.0081 208.314 70.4004C209.378 69.7928 210.351 68.9366 211.235 67.8318C212.127 66.7103 212.903 65.3986 213.563 63.8967ZM218.169 65.9218C217.2 68.1245 216.043 69.9856 214.698 71.505C213.361 73.0077 211.886 74.1417 210.275 74.907C208.664 75.6723 206.936 76.0475 205.091 76.0326C203.269 76.0084 201.382 75.5671 199.43 74.7087C197.478 73.8502 195.877 72.7581 194.628 71.4323C193.386 70.0898 192.503 68.5663 191.978 66.8618C191.452 65.1574 191.291 63.3044 191.495 61.3027C191.705 59.2844 192.294 57.1739 193.263 54.9711C194.217 52.8018 195.362 50.9657 196.7 49.463C198.038 47.9603 199.512 46.8263 201.123 46.061C202.734 45.2957 204.45 44.9252 206.272 44.9494C208.1 44.9569 209.991 45.3899 211.943 46.2483C213.896 47.1067 215.493 48.2072 216.735 49.5497C218.001 50.8829 218.896 52.4017 219.421 54.1061C219.946 55.8106 220.107 57.6636 219.904 59.6653C219.701 61.6669 219.123 63.7524 218.169 65.9218Z" fill="#F97372"/>
<path d="M163.923 36.5058L176.357 37.4294C179.92 37.694 182.534 38.5554 184.199 40.0135C185.882 41.4729 186.63 43.466 186.442 45.9929C186.342 47.3382 185.931 48.45 185.207 49.3286C184.484 50.2071 183.56 50.961 182.434 51.5903C183.936 52.2868 185.101 53.2142 185.929 54.3725C186.757 55.5307 187.107 56.9734 186.979 58.7004C186.878 60.0638 186.559 61.274 186.024 62.331C185.488 63.388 184.729 64.2638 183.745 64.9585C182.761 65.6531 181.535 66.1562 180.068 66.4676C178.62 66.7622 176.924 66.8373 174.979 66.6928L161.754 65.7105L163.923 36.5058ZM167.069 62.0747L174.704 62.6418C176.031 62.7404 177.138 62.7221 178.026 62.5869C178.933 62.4349 179.665 62.1786 180.222 61.8178C180.778 61.457 181.187 61.0029 181.447 60.4556C181.707 59.9082 181.863 59.2801 181.916 58.5711C181.969 57.8621 181.907 57.2177 181.73 56.638C181.556 56.04 181.219 55.5306 180.72 55.1097C180.222 54.6706 179.536 54.318 178.66 54.0519C177.803 53.7689 176.712 53.5781 175.385 53.4795L167.749 52.9124L167.069 62.0747ZM168.023 49.2312L175.603 49.7942C177.294 49.9198 178.655 49.6827 179.687 49.083C180.718 48.4833 181.287 47.4745 181.392 46.0565C181.452 45.2566 181.365 44.583 181.131 44.0355C180.899 43.4699 180.568 43.0066 180.138 42.6456C179.707 42.2846 179.206 42.0189 178.634 41.8484C178.081 41.6612 177.505 41.5452 176.905 41.5007L168.643 40.887L168.023 49.2312Z" fill="#F97372"/>
<path d="M111.806 59.5038C111.09 57.8664 110.749 56.3632 110.786 54.9941C110.814 53.6085 111.142 52.3431 111.769 51.1981C112.396 50.0531 113.289 49.0237 114.45 48.1098C115.619 47.1716 116.977 46.3352 118.525 45.6005C119.81 44.9908 121.116 44.5325 122.443 44.2254C123.787 43.9106 125.068 43.8268 126.288 43.9742C127.501 44.105 128.61 44.507 129.615 45.1799C130.629 45.8286 131.453 46.8199 132.086 48.1539L139.39 63.5438C139.593 63.972 139.884 64.2878 140.263 64.4913C140.634 64.6783 141.075 64.6506 141.586 64.4083C141.816 64.2989 142.047 64.1691 142.279 64.0189C142.502 63.8523 142.734 63.6818 142.974 63.5073L144.463 66.6446C144.131 66.9231 143.796 67.1935 143.456 67.4556C143.133 67.7099 142.716 67.9582 142.205 68.2005C141.415 68.5756 140.7 68.8341 140.061 68.9759C139.439 69.1099 138.859 69.1225 138.323 69.0136C137.796 68.8805 137.312 68.6259 136.871 68.25C136.423 67.8575 135.998 67.3228 135.596 66.646C135.325 67.521 135.002 68.3706 134.626 69.1946C134.242 70.0021 133.757 70.7872 133.171 71.5498C132.577 72.2959 131.853 73.0027 130.999 73.6701C130.154 74.354 129.13 74.9812 127.927 75.5517C126.906 76.0363 125.832 76.3445 124.704 76.4763C123.592 76.6002 122.497 76.5247 121.418 76.2498C120.356 75.9671 119.371 75.4658 118.465 74.7459C117.55 74.0096 116.796 73.0156 116.202 71.764C115.553 70.3971 115.225 69.1102 115.217 67.9032C115.202 66.6798 115.408 65.5628 115.837 64.5524C116.257 63.5255 116.859 62.6042 117.642 61.7885C118.426 60.9729 119.284 60.273 120.217 59.6887L127.219 55.2458C127.888 54.8274 128.311 54.2939 128.487 53.6451C128.672 52.9722 128.519 52.1169 128.026 51.0794C127.268 49.4819 126.198 48.5875 124.816 48.396C123.442 48.1803 121.775 48.5374 119.816 49.4675C117.806 50.4211 116.511 51.5605 115.929 52.8858C115.34 54.1947 115.382 55.7285 116.055 57.4873L111.806 59.5038ZM130.612 56.7832C130.375 57.2187 130.028 57.656 129.57 58.095C129.121 58.5098 128.603 58.9273 128.015 59.3474C127.428 59.7675 126.795 60.1989 126.118 60.6416C125.432 61.0678 124.75 61.5023 124.073 61.945C123.304 62.4511 122.625 62.9753 122.034 63.5177C121.444 64.06 120.976 64.6253 120.63 65.2134C120.283 65.8016 120.087 66.4091 120.042 67.036C119.989 67.6465 120.118 68.2811 120.431 68.9398C120.79 69.6974 121.222 70.3096 121.726 70.7766C122.247 71.2358 122.807 71.5653 123.406 71.7651C124.022 71.9572 124.673 72.0113 125.36 71.9275C126.047 71.8438 126.744 71.6339 127.452 71.2978C127.897 71.0868 128.384 70.7951 128.913 70.4227C129.435 70.0339 129.95 69.5878 130.457 69.0845C130.965 68.5812 131.429 68.0281 131.849 67.4252C132.278 66.798 132.609 66.1362 132.844 65.4397C133.078 64.7433 133.191 64.024 133.182 63.2818C133.173 62.5396 132.988 61.7897 132.629 61.0321L130.612 56.7832Z" fill="#F97372"/>
<path d="M90.563 70.6313L83.1377 77.4628L80.1755 74.2432L98.7287 57.1736L101.691 60.3932L94.2656 67.2248L111.132 85.5566L107.429 88.9631L90.563 70.6313Z" fill="#F97372"/>
<path d="M59.3943 104.528L61.6466 100.029L65.2409 101.829L65.2898 101.731C64.8336 101.135 64.4467 100.483 64.1291 99.7737C63.8197 99.0479 63.6245 98.2774 63.5434 97.4622C63.4541 96.6224 63.4994 95.7379 63.6792 94.8087C63.8672 93.8631 64.2264 92.8605 64.7569 91.801C65.4587 90.3992 66.4009 89.189 67.5835 88.1706C68.7662 87.1522 70.1443 86.4151 71.7179 85.9594C73.2915 85.5036 75.0403 85.3904 76.9641 85.6197C78.8716 85.8407 80.9012 86.4899 83.0529 87.5671C85.7425 88.9136 87.894 90.3373 89.5074 91.8382C91.1126 93.3146 92.2572 94.856 92.9412 96.4623C93.6333 98.0524 93.8933 99.6911 93.7213 101.379C93.5492 103.066 93.0266 104.782 92.1534 106.526C91.7209 107.39 91.2028 108.14 90.5992 108.775C89.9956 109.411 89.3635 109.94 88.703 110.364C88.0343 110.763 87.3738 111.064 86.7215 111.268C86.0529 111.463 85.4537 111.561 84.9238 111.56L84.8748 111.658L98.1515 118.305L95.8992 122.804L59.3943 104.528ZM74.8255 106.749C76.2436 107.459 77.6252 107.978 78.9701 108.305C80.2988 108.623 81.5461 108.718 82.7119 108.588C83.8859 108.442 84.9419 108.063 85.8797 107.452C86.8094 106.817 87.5721 105.904 88.1678 104.714C88.788 103.475 89.0781 102.285 89.0379 101.144C88.9896 99.978 88.6722 98.8814 88.0858 97.8539C87.4993 96.8264 86.6805 95.8762 85.6293 95.0034C84.5618 94.1224 83.319 93.3269 81.9008 92.6169C80.4175 91.8743 78.987 91.3314 77.6095 90.9883C76.2319 90.6452 74.948 90.5426 73.7576 90.6806C72.5673 90.8186 71.4992 91.2216 70.5532 91.8896C69.599 92.5331 68.8118 93.4743 68.1916 94.7131C67.5959 95.9031 67.3303 97.0646 67.395 98.1979C67.4515 99.3066 67.7811 100.379 68.3838 101.414C68.9947 102.434 69.8502 103.392 70.9503 104.289C72.0504 105.187 73.3421 106.007 74.8255 106.749Z" fill="#F97372"/>
<path d="M59.7807 145.516C58.0158 145.234 56.5673 144.707 55.4352 143.936C54.2849 143.163 53.3976 142.204 52.7734 141.057C52.1491 139.911 51.7662 138.602 51.6247 137.132C51.4675 135.641 51.4983 134.046 51.7172 132.347C51.8989 130.937 52.2193 129.59 52.6786 128.308C53.1402 127.007 53.7628 125.883 54.5464 124.937C55.312 123.988 56.2496 123.272 57.3593 122.79C58.4533 122.288 59.7325 122.131 61.197 122.32L78.0926 124.496C78.5626 124.556 78.9857 124.482 79.3619 124.273C79.7199 124.062 79.935 123.676 80.0072 123.116C80.0398 122.863 80.0555 122.598 80.0543 122.322C80.035 122.044 80.0168 121.757 79.9998 121.461L83.444 121.904C83.4989 122.334 83.5448 122.763 83.5817 123.19C83.6208 123.6 83.6043 124.084 83.5321 124.645C83.4204 125.513 83.2514 126.254 83.0252 126.868C82.8014 127.464 82.4989 127.958 82.1175 128.35C81.7205 128.722 81.2446 128.991 80.69 129.159C80.1174 129.324 79.4377 129.393 78.6509 129.365C79.2407 130.066 79.7806 130.797 80.2707 131.558C80.7427 132.318 81.1409 133.15 81.4653 134.056C81.7717 134.959 81.9749 135.95 82.0749 137.029C82.1929 138.11 82.167 139.311 81.997 140.631C81.8526 141.752 81.5309 142.822 81.0319 143.842C80.5352 144.844 79.8796 145.725 79.0651 146.484C78.2528 147.225 77.2988 147.782 76.2031 148.155C75.0893 148.526 73.8453 148.623 72.4712 148.446C70.9706 148.253 69.7105 147.834 68.6909 147.188C67.6533 146.539 66.8252 145.762 66.2068 144.855C65.5704 143.946 65.1208 142.942 64.8581 141.842C64.5954 140.742 64.4706 139.641 64.4838 138.54L64.5318 130.248C64.5415 129.459 64.3212 128.815 63.8709 128.316C63.4048 127.796 62.6022 127.463 61.4632 127.316C59.7094 127.09 58.3784 127.507 57.47 128.566C56.5458 129.605 55.9452 131.201 55.6681 133.352C55.384 135.558 55.6421 137.264 56.4426 138.469C57.2249 139.673 58.5379 140.467 60.3815 140.852L59.7807 145.516ZM67.6596 128.225C67.8977 128.66 68.0777 129.188 68.1997 129.811C68.306 130.412 68.377 131.074 68.4128 131.796C68.4485 132.517 68.4694 133.282 68.4754 134.092C68.4633 134.899 68.4603 135.707 68.4663 136.517C68.4764 137.437 68.5501 138.292 68.6873 139.082C68.8246 139.871 69.0469 140.571 69.3544 141.18C69.6619 141.79 70.0671 142.283 70.5699 142.66C71.0546 143.035 71.6585 143.269 72.3817 143.362C73.2134 143.469 73.9619 143.437 74.6273 143.265C75.2951 143.076 75.875 142.783 76.3671 142.387C76.8616 141.973 77.2592 141.454 77.56 140.831C77.8608 140.208 78.0613 139.508 78.1614 138.731C78.2243 138.242 78.2422 137.675 78.2152 137.028C78.1702 136.379 78.0732 135.705 77.9244 135.006C77.7755 134.306 77.561 133.617 77.2809 132.938C76.9851 132.238 76.6076 131.601 76.1485 131.027C75.6894 130.454 75.1451 129.97 74.5158 129.577C73.8864 129.183 73.1559 128.933 72.3242 128.826L67.6596 128.225Z" fill="#F97372"/>
<path d="M55.8398 183.624L54.8009 178.701L68.6598 175.776L51.7466 164.227L50.386 157.779L65.8807 168.566L78.995 151.518L80.333 157.859L69.6902 171.786L73.4756 174.76L83.4551 172.654L84.4939 177.577L55.8398 183.624Z" fill="#F97372"/>
</svg>
