<svg width="302" height="228" viewBox="0 0 302 228" fill="none" xmlns="http://www.w3.org/2000/svg">
<path d="M232.23 42.257C230.826 41.8279 229.707 41.2359 228.872 40.4809C228.024 39.7221 227.41 38.841 227.032 37.8377C226.653 36.8345 226.49 35.7267 226.54 34.5145C226.581 33.284 226.786 31.9896 227.156 30.6316C227.463 29.5047 227.876 28.4454 228.394 27.4537C228.917 26.4476 229.55 25.6037 230.295 24.9219C231.025 24.2361 231.868 23.7599 232.826 23.493C233.773 23.2078 234.831 23.2246 236.001 23.5434L249.502 27.2218C249.878 27.3242 250.231 27.3116 250.56 27.1841C250.875 27.0527 251.094 26.7631 251.216 26.3152C251.271 26.113 251.314 25.8995 251.344 25.675C251.36 25.4464 251.377 25.2107 251.397 24.9677L254.149 25.7176C254.145 26.0735 254.134 26.4274 254.116 26.7794C254.102 27.1169 254.033 27.5096 253.911 27.9575C253.722 28.651 253.501 29.2348 253.248 29.7089C252.999 30.1687 252.697 30.5365 252.342 30.8123C251.977 31.0698 251.559 31.2354 251.089 31.3091C250.605 31.3788 250.044 31.3579 249.407 31.2465C249.808 31.8833 250.164 32.5392 250.477 33.2142C250.775 33.8852 251.005 34.6075 251.167 35.381C251.314 36.1505 251.368 36.9799 251.327 37.869C251.301 38.762 251.145 39.7359 250.857 40.7905C250.613 41.6863 250.231 42.521 249.709 43.2946C249.192 44.0539 248.559 44.6962 247.811 45.2217C247.066 45.7328 246.227 46.0784 245.294 46.2586C244.345 46.4348 243.322 46.3733 242.224 46.0742C241.025 45.7475 240.047 45.2638 239.291 44.6231C238.52 43.9784 237.934 43.2523 237.533 42.4447C237.118 41.6332 236.865 40.7652 236.776 39.8407C236.686 38.9161 236.709 38.0067 236.844 37.1123L237.819 30.3708C237.916 29.7299 237.81 29.181 237.5 28.724C237.179 28.2487 236.564 27.887 235.654 27.639C234.252 27.2572 233.122 27.446 232.264 28.2053C231.394 28.9462 230.726 30.1763 230.257 31.8955C229.777 33.6581 229.794 35.0751 230.309 36.1467C230.81 37.2143 231.789 38.0086 233.245 38.5296L232.23 42.257ZM240.593 29.0778C240.737 29.4587 240.824 29.9091 240.853 30.4292C240.872 30.9308 240.855 31.4772 240.802 32.0682C240.75 32.6592 240.681 33.2843 240.594 33.9436C240.493 34.599 240.399 35.2563 240.313 35.9156C240.217 36.6655 240.181 37.3695 240.203 38.0274C240.226 38.6854 240.327 39.2796 240.509 39.8102C240.69 40.3407 240.964 40.7878 241.331 41.1515C241.683 41.5112 242.148 41.7699 242.726 41.9273C243.39 42.1084 244.003 42.1667 244.564 42.1022C245.128 42.0232 245.633 41.8504 246.078 41.5837C246.527 41.3025 246.909 40.9255 247.225 40.4526C247.54 39.9798 247.782 39.4327 247.951 38.8115C248.057 38.4214 248.136 37.9617 248.187 37.4324C248.224 36.8992 248.221 36.3398 248.179 35.754C248.137 35.1683 248.04 34.5833 247.889 33.9989C247.727 33.3961 247.492 32.8354 247.183 32.3167C246.874 31.7981 246.486 31.3431 246.018 30.9518C245.551 30.5606 244.985 30.2744 244.32 30.0934L240.593 29.0778Z" fill="#0793B7"/>
<path d="M216.498 63.7803L218.03 59.9418L227.042 63.5384L231.205 53.1079L222.193 49.5113L223.733 45.652L246.075 54.5685L244.535 58.4277L234.542 54.4399L230.38 64.8704L240.372 68.8583L238.84 72.6967L216.498 63.7803Z" fill="#0793B7"/>
<path d="M223.442 77.1207C222.272 76.4815 221.13 76.0276 220.014 75.7589C218.885 75.4831 217.822 75.4141 216.825 75.5518C215.828 75.6896 214.921 76.0384 214.103 76.5982C213.279 77.1376 212.591 77.9132 212.038 78.9249C211.485 79.9367 211.204 80.9349 211.194 81.9196C211.172 82.8971 211.372 83.8426 211.794 84.756C212.216 85.6694 212.848 86.5268 213.69 87.3282C214.519 88.1224 215.518 88.8391 216.687 89.4783C217.87 90.1246 219.032 90.5893 220.175 90.8723C221.304 91.1482 222.367 91.2172 223.363 91.0794C224.36 90.9417 225.271 90.603 226.094 90.0636C226.905 89.517 227.587 88.7378 228.14 87.726C228.693 86.7143 228.981 85.7197 229.003 84.7421C229.019 83.7443 228.816 82.7887 228.394 81.8753C227.972 80.9619 227.34 80.1045 226.498 79.3031C225.643 78.4945 224.624 77.767 223.442 77.1207ZM225.424 73.4942C227.158 74.4422 228.6 75.5202 229.748 76.7282C230.884 77.929 231.708 79.2156 232.221 80.5879C232.733 81.9603 232.918 83.4011 232.776 84.9103C232.628 86.3992 232.134 87.9123 231.293 89.4496C230.453 90.9869 229.446 92.22 228.273 93.1487C227.087 94.0703 225.778 94.6858 224.346 94.9953C222.914 95.3047 221.386 95.3058 219.762 94.9985C218.125 94.684 216.44 94.0527 214.705 93.1047C212.997 92.1711 211.575 91.1039 210.44 89.9031C209.304 88.7023 208.48 87.4157 207.968 86.0433C207.455 84.671 207.273 83.2403 207.421 81.7514C207.556 80.2553 208.044 78.7387 208.884 77.2013C209.724 75.664 210.738 74.4346 211.924 73.513C213.104 72.5712 214.41 71.9455 215.842 71.636C217.274 71.3265 218.802 71.3255 220.426 71.6328C222.05 71.9401 223.716 72.5606 225.424 73.4942Z" fill="#0793B7"/>
<path d="M205.362 103.69L206.556 101.976C206.873 101.521 207.147 101.01 207.379 100.441C207.611 99.8729 207.751 99.3046 207.801 98.7366C207.837 98.1599 207.755 97.6099 207.554 97.0865C207.362 96.5509 206.995 96.0947 206.455 95.718C206.062 95.444 205.627 95.2689 205.151 95.1926C204.671 95.0955 204.18 95.1186 203.679 95.262C203.174 95.3845 202.67 95.6358 202.168 96.0159C201.666 96.396 201.188 96.9116 200.734 97.5627C200.494 97.9067 200.261 98.3463 200.034 98.8817C199.807 99.417 199.67 100.006 199.624 100.649C199.573 101.271 199.67 101.931 199.913 102.63C200.152 103.308 200.625 103.966 201.33 104.603L199.121 107.773C198.297 107.071 197.647 106.353 197.172 105.621C196.685 104.879 196.337 104.135 196.128 103.387C195.919 102.639 195.824 101.898 195.843 101.163C195.871 100.416 195.975 99.7035 196.155 99.026C196.344 98.3362 196.588 97.6849 196.887 97.0721C197.187 96.4593 197.512 95.9011 197.863 95.3974C198.479 94.5129 199.204 93.722 200.036 93.0247C200.857 92.3188 201.736 91.7907 202.674 91.4404C203.608 91.0692 204.57 90.9187 205.562 90.989C206.553 91.0593 207.515 91.4198 208.449 92.0705C209.051 92.49 209.525 92.9484 209.872 93.4457C210.207 93.9344 210.448 94.44 210.595 94.9622C210.751 95.4722 210.832 95.9848 210.838 96.5C210.831 97.0067 210.792 97.4815 210.721 97.9245L210.813 97.9887C211.114 97.6875 211.509 97.3966 211.996 97.1159C212.472 96.8266 213.012 96.628 213.616 96.52C214.208 96.4034 214.862 96.4211 215.578 96.5729C216.289 96.7039 217.038 97.0433 217.825 97.5913C218.93 98.3618 219.722 99.2691 220.199 100.313C220.684 101.345 220.932 102.43 220.941 103.569C220.939 104.698 220.733 105.832 220.323 106.97C219.925 108.117 219.389 109.176 218.712 110.146C217.839 111.399 216.887 112.424 215.857 113.221C214.836 114.006 213.774 114.562 212.67 114.888C211.567 115.214 210.449 115.311 209.318 115.18C208.195 115.036 207.107 114.661 206.052 114.053L208.427 110.644C209.212 111.063 209.96 111.274 210.67 111.276C211.38 111.278 212.039 111.145 212.647 110.875C213.255 110.605 213.817 110.23 214.334 109.75C214.859 109.259 215.327 108.718 215.738 108.128C216.825 106.568 217.325 105.183 217.238 103.972C217.16 102.749 216.592 101.77 215.536 101.033C215.081 100.717 214.624 100.508 214.165 100.407C213.715 100.294 213.251 100.317 212.774 100.478C212.285 100.63 211.787 100.939 211.278 101.407C210.767 101.853 210.228 102.482 209.663 103.292C209.552 103.452 209.43 103.641 209.296 103.858C209.159 104.055 209.024 104.262 208.891 104.479C208.766 104.684 208.648 104.894 208.535 105.107C208.411 105.312 208.299 105.499 208.2 105.667L205.362 103.69Z" fill="#0793B7"/>
<path d="M199.762 133.685L196.842 136.641L190.067 129.948L186.326 133.735C185.652 134.417 185.079 135.029 184.606 135.572C184.133 136.094 183.808 136.615 183.631 137.134C183.454 137.654 183.447 138.194 183.609 138.755C183.782 139.304 184.177 139.937 184.796 140.653L186.507 142.596C186.55 142.66 186.646 142.776 186.795 142.944C186.944 143.113 187.115 143.323 187.307 143.576C187.489 143.819 187.675 144.088 187.868 144.383C188.06 144.678 188.221 144.963 188.35 145.238L185.145 148.481C185.123 148.312 185.096 148.148 185.063 147.989C185.03 147.81 184.955 147.598 184.837 147.356C184.729 147.102 184.558 146.807 184.323 146.469C184.098 146.121 183.789 145.7 183.394 145.204L181.394 142.85C180.882 142.218 180.487 141.68 180.209 141.237C179.942 140.783 179.77 140.361 179.693 139.97C179.617 139.557 179.635 139.144 179.749 138.731C179.853 138.306 180.024 137.813 180.264 137.25C177.794 138.43 175.536 138.01 173.491 135.989C172.979 135.484 172.574 134.957 172.274 134.408C171.963 133.849 171.738 133.3 171.597 132.761C171.466 132.211 171.4 131.682 171.397 131.174C171.393 130.644 171.438 130.162 171.531 129.728C171.644 129.187 171.842 128.667 172.125 128.167C172.397 127.658 172.701 127.179 173.037 126.732C173.384 126.275 173.741 125.849 174.109 125.455C174.478 125.061 174.82 124.704 175.135 124.385L182.649 116.779L199.762 133.685ZM182.317 122.292L177.897 126.766C177.519 127.15 177.198 127.485 176.935 127.773C176.661 128.05 176.43 128.305 176.241 128.539C176.062 128.763 175.915 128.986 175.8 129.209C175.685 129.432 175.586 129.682 175.503 129.957C175.347 130.541 175.378 131.139 175.593 131.752C175.819 132.354 176.166 132.886 176.635 133.349C177.093 133.802 177.55 134.117 178.007 134.294C178.453 134.461 178.887 134.532 179.311 134.508C179.744 134.474 180.157 134.376 180.548 134.215C180.938 134.033 181.302 133.824 181.64 133.589C181.977 133.333 182.288 133.071 182.572 132.805C182.856 132.539 183.098 132.304 183.298 132.102L187.718 127.628L182.317 122.292Z" fill="#0793B7"/>
<path d="M156.306 150.761C155.415 149.594 154.851 148.46 154.613 147.361C154.366 146.249 154.381 145.176 154.658 144.14C154.936 143.104 155.448 142.109 156.196 141.153C156.946 140.177 157.868 139.245 158.96 138.357C159.866 137.621 160.819 137 161.818 136.497C162.829 135.984 163.836 135.667 164.838 135.547C165.831 135.416 166.794 135.521 167.728 135.862C168.663 136.182 169.514 136.813 170.279 137.754L179.105 148.613C179.35 148.915 179.644 149.11 179.986 149.199C180.319 149.276 180.665 149.168 181.025 148.875C181.188 148.743 181.347 148.594 181.502 148.429C181.648 148.253 181.8 148.071 181.958 147.886L183.757 150.099C183.546 150.386 183.331 150.667 183.111 150.943C182.903 151.208 182.618 151.488 182.258 151.78C181.7 152.234 181.18 152.579 180.698 152.817C180.227 153.045 179.768 153.168 179.319 153.185C178.872 153.182 178.436 153.073 178.011 152.859C177.577 152.633 177.133 152.289 176.681 151.827C176.635 152.578 176.543 153.319 176.403 154.05C176.255 154.769 176.021 155.49 175.701 156.213C175.372 156.924 174.932 157.629 174.381 158.328C173.839 159.038 173.144 159.738 172.296 160.427C171.576 161.013 170.778 161.468 169.904 161.793C169.041 162.108 168.152 162.261 167.238 162.252C166.335 162.233 165.452 162.025 164.588 161.627C163.715 161.218 162.919 160.571 162.201 159.688C161.418 158.724 160.905 157.761 160.664 156.799C160.413 155.826 160.36 154.894 160.505 154.005C160.641 153.103 160.942 152.251 161.408 151.447C161.874 150.644 162.423 149.918 163.054 149.27L167.776 144.361C168.229 143.897 168.462 143.389 168.476 142.837C168.493 142.264 168.204 141.611 167.609 140.879C166.693 139.752 165.664 139.247 164.524 139.363C163.386 139.458 162.125 140.068 160.743 141.192C159.325 142.344 158.513 143.506 158.307 144.677C158.092 145.836 158.424 147.052 159.304 148.324L156.306 150.761ZM170.783 144.927C170.679 145.321 170.487 145.737 170.207 146.177C169.93 146.595 169.597 147.029 169.21 147.479C168.823 147.929 168.403 148.396 167.948 148.882C167.484 149.355 167.025 149.835 166.57 150.32C166.055 150.873 165.615 151.424 165.25 151.972C164.884 152.52 164.621 153.062 164.459 153.599C164.297 154.135 164.259 154.658 164.345 155.168C164.421 155.665 164.648 156.146 165.026 156.611C165.46 157.146 165.924 157.55 166.418 157.825C166.922 158.09 167.433 158.243 167.951 158.286C168.479 158.32 169.01 158.236 169.541 158.035C170.073 157.835 170.589 157.531 171.088 157.125C171.402 156.87 171.734 156.543 172.084 156.142C172.424 155.731 172.748 155.274 173.055 154.774C173.363 154.273 173.625 153.742 173.843 153.179C174.063 152.595 174.199 152.002 174.25 151.401C174.302 150.799 174.251 150.203 174.099 149.613C173.948 149.022 173.654 148.46 173.22 147.925L170.783 144.927Z" fill="#0793B7"/>
<path d="M132.822 157.944L141.421 152.381C143.886 150.787 146.024 150.054 147.838 150.183C149.664 150.304 151.142 151.238 152.272 152.986C152.874 153.916 153.156 154.848 153.118 155.782C153.08 156.716 152.849 157.668 152.425 158.639C153.754 158.35 154.976 158.379 156.093 158.727C157.21 159.074 158.154 159.845 158.927 161.04C159.537 161.983 159.929 162.933 160.102 163.891C160.276 164.849 160.213 165.799 159.913 166.742C159.614 167.684 159.061 168.622 158.255 169.553C157.453 170.464 156.379 171.355 155.034 172.225L145.888 178.142L132.822 157.944ZM147.564 173.125L152.845 169.709C153.763 169.115 154.479 168.554 154.993 168.026C155.511 167.476 155.863 166.945 156.049 166.433C156.234 165.92 156.277 165.42 156.175 164.933C156.074 164.446 155.865 163.957 155.548 163.467C155.231 162.976 154.87 162.585 154.467 162.293C154.056 161.988 153.583 161.822 153.048 161.793C152.504 161.753 151.88 161.862 151.174 162.123C150.473 162.362 149.664 162.779 148.746 163.373L143.465 166.788L147.564 173.125ZM141.818 164.243L147.061 160.851C148.23 160.095 149.004 159.264 149.382 158.36C149.76 157.455 149.632 156.513 148.997 155.532C148.64 154.979 148.248 154.581 147.824 154.339C147.391 154.083 146.945 153.944 146.484 153.921C146.023 153.898 145.563 153.973 145.104 154.145C144.649 154.297 144.214 154.507 143.799 154.775L138.085 158.472L141.818 164.243Z" fill="#0793B7"/>
<path d="M130.955 172.835C130.365 171.641 129.69 170.613 128.93 169.752C128.164 168.878 127.333 168.212 126.438 167.752C125.543 167.293 124.6 167.057 123.608 167.046C122.624 167.015 121.615 167.255 120.582 167.766C119.548 168.277 118.745 168.933 118.172 169.734C117.593 170.521 117.214 171.41 117.035 172.401C116.856 173.391 116.882 174.456 117.111 175.595C117.333 176.721 117.74 177.882 118.331 179.076C118.928 180.284 119.613 181.332 120.386 182.22C121.152 183.094 121.982 183.76 122.878 184.22C123.773 184.679 124.713 184.925 125.697 184.956C126.675 184.974 127.68 184.727 128.714 184.216C129.747 183.705 130.554 183.056 131.133 182.268C131.72 181.461 132.102 180.562 132.281 179.571C132.459 178.581 132.434 177.516 132.205 176.377C131.969 175.224 131.552 174.043 130.955 172.835ZM134.66 171.004C135.536 172.776 136.097 174.486 136.344 176.134C136.585 177.769 136.521 179.296 136.153 180.714C135.785 182.132 135.109 183.418 134.126 184.572C133.15 185.706 131.877 186.661 130.306 187.438C128.736 188.214 127.204 188.646 125.71 188.733C124.21 188.806 122.784 188.559 121.434 187.99C120.084 187.421 118.832 186.545 117.679 185.361C116.519 184.164 115.502 182.68 114.626 180.908C113.763 179.163 113.212 177.473 112.971 175.838C112.731 174.202 112.795 172.676 113.163 171.258C113.531 169.84 114.203 168.564 115.179 167.43C116.149 166.282 117.419 165.321 118.989 164.544C120.56 163.768 122.095 163.343 123.595 163.269C125.103 163.176 126.531 163.413 127.881 163.982C129.232 164.55 130.483 165.427 131.636 166.611C132.79 167.794 133.797 169.259 134.66 171.004Z" fill="#0793B7"/>
<path d="M86.7853 178.436L90.6834 177.063L91.7802 180.177L91.865 180.147C91.9352 179.535 92.0789 178.929 92.296 178.328C92.5274 177.723 92.8517 177.156 93.269 176.628C93.6955 176.081 94.227 175.585 94.8635 175.138C95.5142 174.687 96.2985 174.299 97.2166 173.976C98.4312 173.548 99.6785 173.371 100.958 173.444C102.238 173.517 103.473 173.868 104.663 174.497C105.853 175.126 106.951 176.057 107.957 177.29C108.957 178.509 109.786 180.051 110.443 181.915C111.264 184.245 111.722 186.314 111.819 188.122C111.925 189.91 111.722 191.474 111.209 192.814C110.711 194.148 109.929 195.265 108.865 196.163C107.8 197.062 106.512 197.778 105.001 198.31C104.252 198.574 103.518 198.721 102.799 198.752C102.08 198.783 101.404 198.735 100.772 198.609C100.149 198.463 99.587 198.264 99.0855 198.012C98.579 197.746 98.1693 197.462 97.8563 197.159L97.7716 197.189L101.823 208.693L97.9249 210.065L86.7853 178.436ZM94.6352 188.554C95.068 189.783 95.5884 190.877 96.1966 191.838C96.7998 192.784 97.4829 193.552 98.2458 194.14C99.0229 194.724 99.8628 195.103 100.766 195.277C101.677 195.432 102.649 195.328 103.68 194.965C104.753 194.587 105.604 194.049 106.231 193.352C106.868 192.636 107.306 191.807 107.546 190.865C107.786 189.923 107.845 188.895 107.722 187.779C107.594 186.649 107.313 185.47 106.88 184.241C106.428 182.956 105.892 181.819 105.274 180.83C104.656 179.841 103.956 179.048 103.174 178.45C102.392 177.853 101.531 177.481 100.591 177.336C99.6597 177.172 98.6575 177.279 97.5841 177.657C96.5531 178.02 95.7334 178.555 95.1249 179.261C94.5255 179.948 94.1084 180.77 93.8736 181.726C93.6528 182.677 93.6114 183.731 93.7493 184.889C93.8873 186.047 94.1826 187.269 94.6352 188.554Z" fill="#0793B7"/>
<path d="M67.2483 183.308L81.7908 179.9L82.6108 183.399L72.0921 185.864L76.7609 205.786L72.7371 206.729L67.2483 183.308Z" fill="#0793B7"/>
<path d="M41.8737 186.962L45.9768 186.467L48.1856 204.775L48.2748 204.764L57.7953 185.041L62.5005 184.474L65.3819 208.356L61.2566 208.854L59.0477 190.546L58.9585 190.557L49.4603 210.277L44.7552 210.845L41.8737 186.962Z" fill="#0793B7"/>
</svg>
