<svg width="264" height="264" viewBox="0 0 264 264" fill="none" xmlns="http://www.w3.org/2000/svg">
<path d="M44.4249 107.011C45.6729 107.344 46.8687 107.91 48.0125 108.709C49.1562 109.508 50.1511 110.502 50.997 111.692C51.8429 112.881 52.4774 114.249 52.9006 115.797C53.3437 117.329 53.4705 118.992 53.281 120.786C53.0742 122.744 52.5655 124.524 51.7549 126.124C50.928 127.705 49.8069 129.035 48.3915 130.114C46.9599 131.172 45.2288 131.943 43.1982 132.425C41.1676 132.907 38.8289 133.008 36.1821 132.729C34.4056 132.541 32.8213 132.181 31.4294 131.649C30.0212 131.097 28.7896 130.436 27.7346 129.664C26.6634 128.873 25.7658 127.999 25.0419 127.043C24.2999 126.084 23.7168 125.097 23.2925 124.081C22.8521 123.044 22.5586 122.005 22.412 120.963C22.2473 119.919 22.2147 118.926 22.3143 117.983C22.5249 115.989 23.0164 114.199 23.7889 112.613C24.5613 111.026 25.6261 109.709 26.9833 108.661C28.3243 107.592 29.9538 106.83 31.8718 106.372C33.7736 105.895 35.9663 105.787 38.4499 106.05L40.9516 106.314L38.7029 127.606C40.1188 127.737 41.427 127.673 42.6274 127.415C43.8097 127.155 44.8461 126.715 45.7365 126.094C46.627 125.473 47.3514 124.688 47.9099 123.739C48.4522 122.769 48.7904 121.65 48.9244 120.381C49.0604 119.094 48.9939 117.987 48.7252 117.061C48.4564 116.134 48.0727 115.342 47.5739 114.685C47.0751 114.027 46.5004 113.481 45.8498 113.045C45.2011 112.592 44.5548 112.203 43.9109 111.878L44.4249 107.011ZM36.423 110.922C35.0051 110.809 33.7222 110.894 32.5743 111.176C31.4282 111.44 30.4463 111.886 29.6283 112.514C28.7942 113.123 28.1351 113.896 27.651 114.835C27.1488 115.772 26.8345 116.839 26.7081 118.035C26.5875 119.177 26.7031 120.253 27.0548 121.261C27.3884 122.268 27.9158 123.176 28.6368 123.985C29.3398 124.793 30.2121 125.472 31.2538 126.022C32.2775 126.57 33.4281 126.957 34.7056 127.183L36.423 110.922Z" fill="#F97372"/>
<path d="M29.9086 173.623L28.4197 168.817L38.9457 165.556L36.5424 157.799C36.0677 156.267 35.8532 154.835 35.8989 153.504C35.9271 152.178 36.1949 150.979 36.7021 149.906C37.1919 148.838 37.9092 147.919 38.8539 147.15C39.7758 146.368 40.9072 145.769 42.2479 145.354C43.6061 144.933 44.8951 144.782 46.115 144.9C47.312 145.006 48.4231 145.359 49.4482 145.957C50.4559 146.561 51.3461 147.402 52.1188 148.479C52.8915 149.556 53.5152 150.861 53.9899 152.393L57.8821 164.957L29.9086 173.623ZM52.5537 161.34L50.4417 154.523C50.1828 153.687 49.8557 152.94 49.4604 152.28C49.0597 151.602 48.5869 151.062 48.042 150.658C47.4796 150.26 46.8479 150.007 46.1467 149.9C45.4282 149.798 44.6249 149.885 43.7368 150.16C42.8662 150.429 42.1747 150.815 41.6624 151.318C41.1446 151.802 40.7805 152.383 40.5701 153.059C40.3368 153.723 40.2545 154.473 40.3231 155.311C40.369 156.136 40.5402 157.028 40.8369 157.986L42.8113 164.359L52.5537 161.34Z" fill="#F97372"/>
<path d="M53.08 202.12L59.6735 209.757L56.3619 212.616L39.8869 193.533L43.1985 190.674L49.7921 198.312L68.6476 182.033L71.9354 185.842L53.08 202.12Z" fill="#F97372"/>
<path d="M77.381 206.291C77.7763 205.696 78.2658 205.078 78.8495 204.437C79.4172 203.788 80.0735 203.186 80.8186 202.63C81.5553 202.091 82.3841 201.63 83.305 201.25C84.2099 200.86 85.2056 200.611 86.2923 200.503C87.3544 200.402 88.5065 200.482 89.7488 200.744C90.9995 200.99 92.3188 201.477 93.7065 202.206C94.4649 202.605 95.2127 203.122 95.9501 203.756C96.6958 204.375 97.3577 205.114 97.9355 205.974C98.4972 206.825 98.963 207.78 99.3329 208.839C99.6783 209.906 99.8581 211.092 99.8724 212.397C99.8706 213.694 99.6791 215.096 99.298 216.605C98.9083 218.13 98.2555 219.764 97.3396 221.507C96.2116 223.653 94.8916 225.42 93.3794 226.808C91.8588 228.213 90.2764 229.245 88.6323 229.905C86.972 230.556 85.2945 230.848 83.5998 230.781C81.889 230.706 80.2832 230.274 78.7826 229.485C77.4271 228.773 76.3094 228 75.4293 227.167C74.5331 226.325 73.8249 225.458 73.3048 224.567C72.7847 223.676 72.428 222.768 72.2348 221.843C72.033 220.933 71.9574 220.039 72.0078 219.159C72.0336 218.287 72.1566 217.446 72.3769 216.635C72.5811 215.816 72.8328 215.062 73.1321 214.375L77.2952 216.563C76.5967 218.441 76.4848 220.143 76.9594 221.669C77.4179 223.187 78.5428 224.416 80.3339 225.358C81.5602 226.002 82.7647 226.316 83.9474 226.299C85.114 226.274 86.2413 225.971 87.3294 225.389C88.3929 224.816 89.4129 223.972 90.3895 222.858C91.3414 221.752 92.216 220.441 93.0132 218.924C93.9122 217.214 94.5268 215.653 94.8571 214.24C95.1789 212.844 95.2533 211.586 95.0803 210.466C94.8988 209.361 94.4822 208.391 93.8306 207.554C93.1543 206.725 92.2675 206.022 91.1702 205.445C90.3957 205.038 89.5894 204.789 88.7514 204.699C87.9048 204.625 87.0673 204.71 86.2388 204.954C85.4019 205.214 84.582 205.638 83.7791 206.225C82.9763 206.812 82.2313 207.563 81.5441 208.479L77.381 206.291Z" fill="#F97372"/>
<path d="M134.991 233.342C134.841 235.123 134.424 236.607 133.739 237.794C133.054 238.998 132.163 239.955 131.067 240.663C129.97 241.371 128.694 241.85 127.238 242.101C125.764 242.369 124.171 242.457 122.46 242.366C121.04 242.29 119.673 242.071 118.36 241.709C117.029 241.345 115.862 240.808 114.859 240.098C113.856 239.405 113.072 238.523 112.509 237.453C111.926 236.399 111.674 235.135 111.753 233.661L112.663 216.65C112.688 216.177 112.582 215.76 112.346 215.401C112.109 215.06 111.708 214.874 111.144 214.844C110.889 214.83 110.624 214.834 110.349 214.856C110.073 214.896 109.788 214.935 109.494 214.974L109.679 211.507C110.103 211.42 110.527 211.342 110.951 211.274C111.356 211.204 111.841 211.184 112.405 211.214C113.279 211.261 114.031 211.374 114.66 211.554C115.271 211.733 115.786 211.998 116.206 212.349C116.606 212.717 116.91 213.171 117.119 213.712C117.326 214.271 117.445 214.943 117.476 215.73C118.131 215.089 118.82 214.497 119.543 213.951C120.265 213.424 121.065 212.964 121.944 212.573C122.822 212.2 123.795 211.924 124.864 211.744C125.933 211.545 127.132 211.482 128.461 211.553C129.59 211.613 130.681 211.854 131.736 212.275C132.772 212.696 133.699 213.284 134.517 214.04C135.316 214.794 135.943 215.704 136.397 216.769C136.85 217.852 137.04 219.085 136.966 220.469C136.885 221.98 136.561 223.267 135.993 224.332C135.424 225.415 134.71 226.299 133.852 226.984C132.993 227.686 132.025 228.209 130.948 228.553C129.87 228.897 128.782 229.104 127.683 229.173L119.411 229.744C118.623 229.793 117.997 230.061 117.533 230.547C117.05 231.051 116.777 231.876 116.716 233.023C116.622 234.788 117.136 236.085 118.261 236.911C119.366 237.755 121.001 238.235 123.167 238.351C125.388 238.47 127.07 238.085 128.213 237.197C129.354 236.327 130.048 234.959 130.294 233.091L134.991 233.342ZM117.16 226.776C117.576 226.506 118.089 226.287 118.701 226.119C119.293 225.968 119.947 225.848 120.664 225.758C121.381 225.669 122.143 225.591 122.949 225.524C123.755 225.476 124.562 225.419 125.368 225.352C126.285 225.274 127.132 225.136 127.91 224.941C128.687 224.745 129.368 224.471 129.952 224.119C130.537 223.767 130.999 223.326 131.338 222.796C131.675 222.285 131.864 221.665 131.902 220.937C131.947 220.1 131.859 219.356 131.638 218.705C131.399 218.053 131.064 217.497 130.632 217.036C130.182 216.574 129.636 216.216 128.992 215.962C128.348 215.709 127.635 215.561 126.852 215.519C126.361 215.493 125.794 215.517 125.151 215.593C124.507 215.686 123.842 215.833 123.156 216.034C122.47 216.234 121.798 216.5 121.142 216.83C120.466 217.177 119.859 217.601 119.321 218.101C118.783 218.602 118.341 219.181 117.996 219.838C117.651 220.495 117.455 221.242 117.411 222.079L117.16 226.776Z" fill="#F97372"/>
<path d="M157.719 220.827C158.635 220.162 159.67 219.5 160.823 218.841C161.959 218.189 163.054 217.66 164.109 217.254C167.766 215.846 170.748 215.499 173.055 216.213C175.367 216.944 177.106 218.824 178.272 221.852L181.553 230.375L176.857 232.183L173.94 224.604C173.547 223.583 173.088 222.744 172.561 222.087C172.018 221.437 171.371 220.973 170.619 220.696C169.875 220.436 168.997 220.363 167.987 220.479C166.976 220.594 165.799 220.91 164.455 221.428C164.098 221.565 163.686 221.763 163.219 222.021C162.734 222.285 162.248 222.57 161.76 222.875C161.272 223.18 160.804 223.487 160.357 223.796C159.899 224.129 159.517 224.432 159.212 224.706L163.996 237.133L159.275 238.95L148.755 211.62L153.476 209.803L157.719 220.827Z" fill="#F97372"/>
<path d="M185.546 206.316C185.093 205.763 184.647 205.114 184.207 204.367C183.753 203.634 183.371 202.829 183.059 201.954C182.76 201.091 182.564 200.163 182.471 199.171C182.365 198.192 182.42 197.167 182.636 196.096C182.852 195.052 183.268 193.974 183.883 192.864C184.486 191.741 185.34 190.623 186.445 189.512C187.05 188.904 187.763 188.341 188.587 187.823C189.397 187.293 190.298 186.877 191.29 186.578C192.269 186.292 193.319 186.128 194.44 186.086C195.562 186.07 196.748 186.247 197.999 186.617C199.238 187 200.522 187.596 201.852 188.404C203.195 189.225 204.565 190.33 205.961 191.718C207.68 193.427 208.981 195.209 209.862 197.062C210.757 198.929 211.278 200.745 211.425 202.51C211.559 204.289 211.345 205.978 210.782 207.578C210.207 209.191 209.321 210.599 208.126 211.801C207.046 212.887 205.979 213.727 204.924 214.323C203.855 214.932 202.819 215.354 201.814 215.589C200.809 215.824 199.837 215.898 198.895 215.81C197.967 215.736 197.09 215.545 196.264 215.238C195.438 214.957 194.67 214.591 193.96 214.142C193.237 213.706 192.591 213.244 192.023 212.756L195.339 209.421C196.928 210.641 198.521 211.248 200.12 211.244C201.705 211.252 203.211 210.539 204.638 209.104C205.615 208.121 206.269 207.063 206.601 205.927C206.92 204.805 206.962 203.638 206.726 202.427C206.491 201.242 205.985 200.019 205.208 198.758C204.431 197.523 203.435 196.301 202.219 195.093C200.849 193.73 199.538 192.684 198.285 191.953C197.046 191.234 195.865 190.793 194.743 190.629C193.634 190.477 192.584 190.59 191.593 190.966C190.601 191.369 189.669 192.009 188.795 192.889C188.178 193.509 187.703 194.206 187.37 194.981C187.05 195.768 186.885 196.593 186.874 197.457C186.877 198.334 187.041 199.242 187.365 200.182C187.69 201.122 188.189 202.055 188.862 202.981L185.546 206.316Z" fill="#F97372"/>
<path d="M218.654 158.284C217.408 157.947 216.213 157.377 215.072 156.574C213.931 155.771 212.939 154.774 212.097 153.582C211.255 152.39 210.625 151.02 210.207 149.471C209.768 147.938 209.647 146.274 209.842 144.48C210.055 142.523 210.57 140.745 211.385 139.147C212.217 137.569 213.343 136.243 214.761 135.168C216.196 134.114 217.93 133.35 219.962 132.874C221.994 132.398 224.333 132.304 226.979 132.592C228.755 132.786 230.338 133.15 231.728 133.687C233.135 134.243 234.364 134.909 235.417 135.684C236.485 136.478 237.38 137.355 238.101 138.314C238.84 139.274 239.42 140.263 239.841 141.281C240.278 142.319 240.568 143.359 240.712 144.401C240.873 145.446 240.902 146.439 240.8 147.382C240.583 149.375 240.086 151.164 239.308 152.748C238.531 154.332 237.462 155.646 236.101 156.69C234.757 157.753 233.125 158.511 231.205 158.962C229.302 159.434 227.109 159.534 224.626 159.264L222.126 158.992L224.442 137.707C223.026 137.572 221.718 137.631 220.517 137.885C219.334 138.142 218.296 138.579 217.404 139.197C216.511 139.815 215.784 140.597 215.223 141.545C214.677 142.512 214.336 143.63 214.197 144.899C214.057 146.186 214.12 147.293 214.386 148.22C214.652 149.148 215.033 149.941 215.53 150.6C216.027 151.259 216.6 151.807 217.249 152.245C217.896 152.7 218.541 153.091 219.184 153.418L218.654 158.284ZM226.669 154.398C228.086 154.515 229.369 154.435 230.518 154.157C231.665 153.896 232.648 153.453 233.468 152.827C234.304 152.222 234.966 151.45 235.453 150.513C235.958 149.578 236.276 148.512 236.406 147.316C236.53 146.174 236.418 145.099 236.07 144.089C235.739 143.081 235.215 142.171 234.496 141.36C233.796 140.55 232.926 139.868 231.886 139.315C230.864 138.764 229.715 138.373 228.438 138.142L226.669 154.398Z" fill="#F97372"/>
<path d="M224.799 113.061C226.343 112.562 227.701 111.932 228.872 111.171C230.061 110.403 231.012 109.522 231.725 108.525C232.437 107.529 232.889 106.435 233.078 105.243C233.291 104.063 233.182 102.806 232.75 101.47C232.319 100.134 231.672 99.0501 230.809 98.2177C229.964 97.3797 228.961 96.765 227.8 96.3738C226.639 95.9825 225.352 95.8235 223.939 95.8968C222.543 95.9645 221.073 96.2477 219.529 96.7464C217.968 97.2507 216.585 97.8892 215.378 98.662C214.189 99.4292 213.239 100.311 212.526 101.307C211.813 102.304 211.351 103.392 211.138 104.572C210.943 105.746 211.061 107.001 211.492 108.337C211.923 109.672 212.562 110.759 213.407 111.597C214.276 112.447 215.29 113.067 216.451 113.459C217.612 113.85 218.899 114.009 220.312 113.936C221.742 113.857 223.238 113.565 224.799 113.061ZM226.346 117.849C224.056 118.588 221.897 118.96 219.867 118.964C217.855 118.963 216.028 118.614 214.386 117.919C212.744 117.223 211.315 116.181 210.1 114.792C208.908 113.414 207.984 111.711 207.329 109.681C206.673 107.652 206.426 105.73 206.587 103.915C206.765 102.095 207.317 100.423 208.242 98.8982C209.167 97.3734 210.445 96.0219 212.076 94.8438C213.724 93.66 215.693 92.6983 217.983 91.9587C220.238 91.2303 222.372 90.8668 224.383 90.8682C226.395 90.8697 228.222 91.2182 229.865 91.9137C231.507 92.6093 232.924 93.6457 234.116 95.0231C235.325 96.3948 236.258 98.0955 236.914 100.125C237.569 102.155 237.808 104.079 237.629 105.899C237.474 107.731 236.934 109.409 236.009 110.934C235.084 112.459 233.806 113.811 232.175 114.989C230.544 116.167 228.601 117.12 226.346 117.849Z" fill="#F97372"/>
<path d="M205.336 51.9918L208.782 55.6574L198.463 65.3595L218.915 66.435L223.429 71.2362L204.585 70.0748L202.243 91.4552L197.804 86.7338L199.656 69.3038L194.877 68.7309L187.446 75.7171L184 72.0515L205.336 51.9918Z" fill="#F97372"/>
<path d="M176.867 64.7215L155.973 56.0013L153.214 62.6126L148.874 60.8012L153.318 50.1523L156.876 51.6373C158.375 50.1294 159.736 48.5246 160.96 46.823C162.19 45.1046 163.324 43.3356 164.36 41.5161C165.403 39.6798 166.365 37.8 167.247 35.8766C168.129 33.9533 168.98 32.0074 169.802 30.0392L188.677 37.9169L179.082 60.9052L182.893 62.4955L178.448 73.1444L174.108 71.3329L176.867 64.7215ZM174.439 58.9674L182.349 40.0165L172.558 35.9302C171.801 37.412 171.018 38.9322 170.21 40.491C169.418 42.0569 168.572 43.6101 167.672 45.1506C166.797 46.6813 165.852 48.1636 164.839 49.5975C163.842 51.0385 162.761 52.3749 161.595 53.6067L174.439 58.9674Z" fill="#F97372"/>
<path d="M121.824 30.5927C121.936 28.8089 122.321 27.3165 122.98 26.1156C123.639 24.8964 124.509 23.9211 125.59 23.1896C126.671 22.4581 127.937 21.9513 129.386 21.6693C130.855 21.3697 132.446 21.2472 134.158 21.3019C135.58 21.3473 136.95 21.537 138.271 21.871C139.61 22.2055 140.788 22.7173 141.806 23.4064C142.824 24.0773 143.626 24.9419 144.213 26.0002C144.818 27.0408 145.097 28.2991 145.05 29.7749L144.506 46.8014C144.491 47.2751 144.605 47.6891 144.849 48.0434C145.094 48.3795 145.499 48.5566 146.064 48.5746C146.319 48.5828 146.583 48.573 146.858 48.5453C147.133 48.4994 147.417 48.4537 147.71 48.4084L147.6 51.8793C147.177 51.9752 146.755 52.062 146.333 52.1397C145.929 52.218 145.445 52.2482 144.88 52.2301C144.005 52.2022 143.252 52.1052 142.619 51.9391C142.004 51.7735 141.483 51.5198 141.056 51.1779C140.648 50.8183 140.334 50.3706 140.114 49.8346C139.895 49.2805 139.761 48.6105 139.713 47.8247C139.072 48.4791 138.396 49.0867 137.685 49.6477C136.975 50.1904 136.185 50.6667 135.314 51.0766C134.445 51.4683 133.478 51.7658 132.413 51.9689C131.348 52.1902 130.151 52.2796 128.821 52.2372C127.691 52.2011 126.595 51.9837 125.531 51.585C124.486 51.1869 123.547 50.6188 122.713 49.8809C121.898 49.1436 121.252 48.2475 120.775 47.1927C120.298 46.1196 120.082 44.8908 120.126 43.506C120.175 41.9938 120.471 40.6992 121.016 39.6223C121.562 38.5272 122.256 37.6283 123.099 36.9257C123.943 36.2049 124.9 35.6609 125.969 35.2938C127.039 34.9267 128.122 34.6968 129.22 34.6042L137.478 33.8557C138.265 33.7896 138.885 33.5084 139.338 33.0122C139.81 32.4984 140.065 31.6676 140.102 30.5197C140.158 28.7524 139.615 27.4675 138.474 26.665C137.351 25.8449 135.705 25.4002 133.537 25.331C131.314 25.26 129.641 25.6808 128.518 26.5934C127.395 27.4877 126.731 28.8708 126.525 30.7428L121.824 30.5927ZM139.792 36.7748C139.382 37.0535 138.873 37.2834 138.266 37.4647C137.677 37.6282 137.025 37.7625 136.311 37.8673C135.596 37.9722 134.836 38.0665 134.031 38.1502C133.226 38.2157 132.421 38.2903 131.616 38.374C130.701 38.4725 129.857 38.6279 129.084 38.8403C128.312 39.0528 127.637 39.3413 127.06 39.7058C126.483 40.0704 126.03 40.5211 125.703 41.0578C125.377 41.5763 125.202 42.1999 125.178 42.9287C125.152 43.7668 125.256 44.5088 125.49 45.1546C125.743 45.8011 126.091 46.3502 126.532 46.802C126.992 47.2544 127.546 47.6004 128.195 47.84C128.844 48.0796 129.56 48.2118 130.344 48.2369C130.836 48.2526 131.402 48.2159 132.043 48.127C132.685 48.0198 133.347 47.8586 134.029 47.6432C134.71 47.4279 135.376 47.1482 136.025 46.8042C136.693 46.4425 137.291 46.0056 137.818 45.4935C138.345 44.9814 138.774 44.3933 139.105 43.729C139.437 43.0648 139.616 42.3136 139.642 41.4755L139.792 36.7748Z" fill="#F97372"/>
<path d="M96.895 33.0523L86.6814 37.6749L89.3797 44.1672C90.7458 47.4508 91.7218 50.2705 92.3079 52.6265C92.8864 54.9658 93.1239 56.9494 93.0201 58.577C92.933 60.1972 92.5236 61.503 91.7918 62.4945C91.06 63.4861 90.063 64.2674 88.8009 64.8387C88.3358 65.0491 87.8951 65.1586 87.4787 65.1669C87.0865 65.1844 86.7652 65.1597 86.5148 65.093L84.6883 61.0574C85.4488 61.0133 86.0781 60.8786 86.5763 60.6531C86.9251 60.4952 87.2309 60.2868 87.4938 60.0277C87.7734 59.7611 87.9791 59.3979 88.1111 58.938C88.2597 58.4705 88.3233 57.8815 88.3018 57.1709C88.2728 56.4436 88.1279 55.5488 87.8672 54.4863C87.623 53.4162 87.2433 52.1574 86.7282 50.7098C86.2297 49.2546 85.5694 47.5525 84.7473 45.6035L80.518 35.6621L99.6747 26.992L111.75 53.6718L107.166 55.7463L96.895 33.0523Z" fill="#F97372"/>
<path d="M73.4566 61.9296C73.9404 62.4556 74.4237 63.0785 74.9063 63.7983C75.401 64.5044 75.8292 65.2856 76.191 66.1418C76.5391 66.986 76.7881 67.9007 76.9382 68.8859C77.1003 69.8575 77.1043 70.8839 76.9502 71.9651C76.7946 73.0205 76.4414 74.1201 75.8908 75.264C75.3538 76.42 74.5656 77.5848 73.526 78.7582C72.9579 79.3996 72.2777 80.0025 71.4854 80.567C70.7068 81.1436 69.831 81.6098 68.8582 81.9657C67.8975 82.3079 66.8586 82.5322 65.7416 82.6386C64.623 82.7192 63.4284 82.6107 62.1578 82.3131C60.8992 82.0019 59.5828 81.4811 58.2085 80.7507C56.8205 80.0082 55.3897 78.9843 53.916 77.6788C52.1012 76.0712 50.7003 74.3674 49.7133 72.5676C48.7126 70.7557 48.0881 68.9727 47.8399 67.2186C47.6037 65.4508 47.7205 63.752 48.19 62.1223C48.6717 60.479 49.4746 59.0228 50.5987 57.7538C51.6141 56.6076 52.6314 55.7067 53.6506 55.051C54.6819 54.3816 55.6923 53.9008 56.6819 53.6084C57.6715 53.3161 58.6386 53.1865 59.5833 53.2197C60.5144 53.2409 61.401 53.3809 62.2431 53.6399C63.0837 53.8731 63.8714 54.1934 64.6063 54.6009C65.3533 54.9948 66.0247 55.419 66.6204 55.8737L63.5018 59.3941C61.8452 58.2676 60.2192 57.7526 58.6238 57.8492C57.0405 57.9321 55.5779 58.7309 54.2362 60.2455C53.3175 61.2825 52.7252 62.3773 52.4592 63.5298C52.2053 64.6686 52.2307 65.8358 52.5355 67.0312C52.8388 68.2009 53.4145 69.3928 54.2628 70.607C55.1096 71.7955 56.1743 72.9578 57.4569 74.0941C58.9033 75.3754 60.2727 76.3449 61.5652 77.0028C62.8439 77.6485 64.0481 78.0212 65.1776 78.1207C66.2934 78.2081 67.3354 78.0353 68.3036 77.6022C69.2701 77.1434 70.1644 76.45 70.9864 75.5221C71.5666 74.8672 72.0006 74.1436 72.2884 73.3513C72.5625 72.547 72.68 71.7134 72.6407 70.8506C72.5877 69.9757 72.372 69.0784 71.9935 68.1586C71.615 67.2388 71.0631 66.336 70.338 65.4501L73.4566 61.9296Z" fill="#F97372"/>
</svg>
